<?xml version="1.0" encoding="UTF-8"?>
<svg version="1.1" xmlns="http://www.w3.org/2000/svg" width="150" height="151">
<path d="M0 0 C0.85494049 -0.01606293 1.70988098 -0.03212585 2.59072876 -0.04867554 C6.5175087 -0.09325392 10.44411946 -0.13422545 14.37109375 -0.15722656 C16.4369639 -0.17374316 18.50277792 -0.20097601 20.56835938 -0.23925781 C23.55417391 -0.29429366 26.53864742 -0.31594524 29.52490234 -0.33056641 C30.43978424 -0.35323578 31.35466614 -0.37590515 32.29727173 -0.39926147 C38.83343402 -0.37794405 42.68646193 1.27831228 47.86083984 5.19287109 C48.85083984 5.85287109 49.84083984 6.51287109 50.86083984 7.19287109 C50.86083984 7.85287109 50.86083984 8.51287109 50.86083984 9.19287109 C51.44349609 9.44037109 52.02615234 9.68787109 52.62646484 9.94287109 C55.1919822 11.37812556 56.69808782 12.96950122 58.61083984 15.19287109 C59.22443359 15.89412109 59.83802734 16.59537109 60.47021484 17.31787109 C61.86083984 19.19287109 61.86083984 19.19287109 61.86083984 21.19287109 C60.85021484 21.44037109 59.83958984 21.68787109 58.79833984 21.94287109 C51.28923026 24.1380745 46.33233477 27.85226253 41.86083984 34.19287109 C39.95770116 37.99914846 38.9859381 42.09429887 37.86083984 46.19287109 C37.20083984 46.19287109 36.54083984 46.19287109 35.86083984 46.19287109 C36.35583984 55.59787109 36.35583984 55.59787109 36.86083984 65.19287109 C35.43771484 65.72912109 34.01458984 66.26537109 32.54833984 66.81787109 C28.94738614 68.1747522 28.02261551 68.90879443 26.06787109 72.34130859 C25.66955078 73.28232422 25.27123047 74.22333984 24.86083984 75.19287109 C16.67385786 75.51510549 8.48643407 75.80457171 0.29736328 76.06835938 C-2.52597736 76.17065433 -5.34234529 76.3071634 -8.16259766 76.47021484 C-17.29460814 76.84387994 -17.29460814 76.84387994 -21.13916016 73.88037109 C-21.83687146 72.66855672 -22.49936914 71.43623854 -23.13916016 70.19287109 C-23.69732422 69.41556641 -24.25548828 68.63826172 -24.83056641 67.83740234 C-31.6050086 58.2626688 -35.27444219 47.77357785 -33.67822266 36.00537109 C-32.0572106 27.54791687 -29.69967487 21.80226843 -24.13916016 15.19287109 C-23.45853516 14.20287109 -22.77791016 13.21287109 -22.07666016 12.19287109 C-17.42322185 6.59949989 -7.32332133 0.12506026 0 0 Z " fill="#FDFCFD" transform="translate(48.13916015625,65.80712890625)"/>
<path d="M0 0 C5.79550614 4.66160277 10.4509277 10.90967787 11.875 18.3125 C12.78588208 28.3546938 12.60336154 37.54765002 6.00390625 45.59375 C-1.16740896 53.07686152 -8.19954669 56.3061399 -18.5625 56.625 C-28.27506003 56.35743636 -33.94054024 53.37818697 -40.95703125 46.64453125 C-46.88873914 40.26393736 -49.71345446 32.32633822 -49.4375 23.58203125 C-48.1138632 13.969119 -44.54540449 6.52624201 -36.9140625 0.59375 C-25.54784719 -7.41169068 -11.91773301 -6.43557583 0 0 Z " fill="#FAF9FB" transform="translate(138.125,94.6875)"/>
<path d="M0 0 C5.83838958 3.94337758 9.42717617 9.01234599 11.50390625 15.76171875 C13.2314631 24.69318764 11.35463345 31.48766973 6.45703125 38.98046875 C1.57666112 45.32729625 -4.45378044 47.89530967 -12.2734375 49.12109375 C-20.71590649 49.54237464 -27.74372442 45.95016727 -34.10546875 40.78125 C-34.43546875 40.12125 -34.76546875 39.46125 -35.10546875 38.78125 C-35.38519531 39.28914063 -35.66492187 39.79703125 -35.953125 40.3203125 C-41.14520785 49.23533579 -47.26643062 53.69666409 -57.10546875 56.78125 C-61.18684095 57.71643544 -64.90746001 58.09808085 -69.10546875 57.78125 C-71.43534325 54.28643826 -71.26738558 53.68307834 -70.54296875 49.71875 C-68.57877737 40.42566953 -65.31569559 33.7335111 -57.44140625 28.1875 C-52.18169558 25.02111899 -47.3526424 23.31271198 -41.10546875 23.78125 C-41.04359375 22.481875 -40.98171875 21.1825 -40.91796875 19.84375 C-39.95240965 11.53211292 -35.6997994 5.42581111 -29.27734375 0.22265625 C-19.82487173 -6.05065702 -9.59609933 -5.55469942 0 0 Z " fill="#B670A7" transform="translate(85.10546875,12.21875)"/>
<path d="M0 0 C5.28871506 4.78502791 6.03192766 10.61397531 6.625 17.375 C13.555 18.86 13.555 18.86 20.625 20.375 C21.12 30.77 21.12 30.77 21.625 41.375 C18.655 42.695 15.685 44.015 12.625 45.375 C11.635 47.355 10.645 49.335 9.625 51.375 C-0.275 51.87 -0.275 51.87 -10.375 52.375 C-13.94021704 45.95760932 -16.17733463 41.72973411 -15.375 34.375 C-13.69454393 32.69454393 -11.49111727 33.08983097 -9.1875 32.9375 C-4.96632939 32.59672841 -1.33102664 31.97879458 2.625 30.375 C2.295 29.055 1.965 27.735 1.625 26.375 C0.84125 26.54 0.0575 26.705 -0.75 26.875 C-6.77253334 27.70569425 -12.1244005 28.41694421 -17.75 25.8125 C-21.9577264 21.90532549 -24.53932477 18.1644382 -24.875 12.3125 C-24.15705037 6.65864664 -21.98032136 3.82370464 -17.8125 0.0625 C-12.07175215 -3.9118639 -6.03986926 -2.9080852 0 0 Z " fill="#FDFDFD" transform="translate(63.375,89.625)"/>
<path d="M0 0 C4.59433484 2.78222668 8.26931297 7.1126264 9.9609375 12.1875 C10.72087353 18.90750577 10.4163178 23.97424162 6.390625 29.53515625 C2.97628942 33.48123262 -1.07906513 36.75457521 -6.3359375 37.5234375 C-13.18399152 37.63248295 -18.44756114 36.52311831 -23.57421875 31.76171875 C-28.04818709 26.71383027 -29.54168917 22.14340323 -29.34375 15.5234375 C-28.54688118 9.41410989 -25.79164551 5.4743736 -20.9765625 1.75 C-14.45620375 -2.84303582 -7.26214578 -2.98522989 0 0 Z " fill="#FDFCFD" transform="translate(80.0390625,16.8125)"/>
<path d="M0 0 C5.79550614 4.66160277 10.4509277 10.90967787 11.875 18.3125 C12.78588208 28.3546938 12.60336154 37.54765002 6.00390625 45.59375 C-1.16740896 53.07686152 -8.19954669 56.3061399 -18.5625 56.625 C-28.27506003 56.35743636 -33.94054024 53.37818697 -40.95703125 46.64453125 C-46.88873914 40.26393736 -49.71345446 32.32633822 -49.4375 23.58203125 C-48.1138632 13.969119 -44.54540449 6.52624201 -36.9140625 0.59375 C-25.54784719 -7.41169068 -11.91773301 -6.43557583 0 0 Z M-38.52734375 12.08984375 C-42.56828589 17.71159455 -42.7904892 23.59521839 -42.125 30.3125 C-40.72129673 36.51950041 -37.70067903 41.8952483 -32.31640625 45.53515625 C-25.3746395 49.5616696 -20.1326118 50.08888626 -12.125 49.3125 C-4.6659018 47.14073535 0.07471469 43.00950628 3.875 36.3125 C6.97275028 29.69457894 6.7166457 23.00521181 4.375 16.1875 C1.44908157 9.53956519 -3.32592637 5.9193756 -9.5 2.375 C-21.57940271 -1.16551459 -30.71419457 2.53698739 -38.52734375 12.08984375 Z " fill="#735D95" transform="translate(138.125,94.6875)"/>
<path d="M0 0 C0.85494049 -0.01606293 1.70988098 -0.03212585 2.59072876 -0.04867554 C6.5175087 -0.09325392 10.44411946 -0.13422545 14.37109375 -0.15722656 C16.4369639 -0.17374316 18.50277792 -0.20097601 20.56835938 -0.23925781 C23.55417391 -0.29429366 26.53864742 -0.31594524 29.52490234 -0.33056641 C30.43978424 -0.35323578 31.35466614 -0.37590515 32.29727173 -0.39926147 C38.83343402 -0.37794405 42.68646193 1.27831228 47.86083984 5.19287109 C48.85083984 5.85287109 49.84083984 6.51287109 50.86083984 7.19287109 C50.86083984 7.85287109 50.86083984 8.51287109 50.86083984 9.19287109 C51.44349609 9.44037109 52.02615234 9.68787109 52.62646484 9.94287109 C55.1919822 11.37812556 56.69808782 12.96950122 58.61083984 15.19287109 C59.22443359 15.89412109 59.83802734 16.59537109 60.47021484 17.31787109 C61.86083984 19.19287109 61.86083984 19.19287109 61.86083984 21.19287109 C59.55083984 21.85287109 57.24083984 22.51287109 54.86083984 23.19287109 C54.26916016 22.51740234 53.67748047 21.84193359 53.06787109 21.14599609 C52.27767578 20.25396484 51.48748047 19.36193359 50.67333984 18.44287109 C49.89603516 17.56115234 49.11873047 16.67943359 48.31787109 15.77099609 C43.17264217 10.37218673 38.8678145 7.50135303 31.29321289 6.91821289 C26.04837438 6.88090857 26.04837438 6.88090857 20.8034668 6.87719727 C18.5649297 6.88034775 16.32772872 6.85689791 14.08935547 6.83154297 C1.01742157 6.77104289 -7.55391132 8.85214391 -17.13916016 18.19287109 C-23.62168113 25.88746007 -26.82986832 34.29573269 -26.47900391 44.37255859 C-25.28493261 54.28197788 -20.23421263 61.5502467 -14.13916016 69.19287109 C-13.08728516 70.52705078 -13.08728516 70.52705078 -12.01416016 71.88818359 C-10.19180569 74.20840207 -10.19180569 74.20840207 -8.13916016 76.19287109 C-11.53961628 76.54942377 -14.74579824 76.66940803 -18.13916016 76.19287109 C-20.55880708 74.11084933 -21.54811902 72.83605234 -23.13916016 70.19287109 C-23.70376953 69.41556641 -24.26837891 68.63826172 -24.85009766 67.83740234 C-31.58060561 58.22441947 -35.27678702 47.79086523 -33.67822266 36.00537109 C-32.0572106 27.54791687 -29.69967487 21.80226843 -24.13916016 15.19287109 C-23.45853516 14.20287109 -22.77791016 13.21287109 -22.07666016 12.19287109 C-17.42322185 6.59949989 -7.32332133 0.12506026 0 0 Z " fill="#B670A6" transform="translate(48.13916015625,65.80712890625)"/>
<path d="M0 0 C5.39768387 3.37593655 9.45745036 7.58391041 11.1875 13.875 C11.3125 17.1875 11.3125 17.1875 11.1875 19.875 C12.09242187 19.96587891 12.09242187 19.96587891 13.015625 20.05859375 C13.81484375 20.14238281 14.6140625 20.22617188 15.4375 20.3125 C16.62085937 20.43431641 16.62085937 20.43431641 17.828125 20.55859375 C20.01114639 20.85134993 22.0648182 21.29564419 24.1875 21.875 C23.5275 24.185 22.8675 26.495 22.1875 28.875 C21.5275 28.875 20.8675 28.875 20.1875 28.875 C20.1875 28.215 20.1875 27.555 20.1875 26.875 C19.60742188 26.82601562 19.02734375 26.77703125 18.4296875 26.7265625 C13.74826908 26.27850595 9.61264541 25.576979 5.1875 23.875 C5.10113281 23.06675781 5.01476562 22.25851563 4.92578125 21.42578125 C4.08576489 14.64605654 4.08576489 14.64605654 0.875 8.75 C-4.13809223 5.25249379 -7.56188671 4.42116414 -13.59375 5.265625 C-17.92810305 6.45604591 -20.49155371 9.13375262 -23.1875 12.6875 C-24.44951852 17.10456482 -24.68190261 20.90065942 -22.83203125 25.1015625 C-20.62733092 28.83259383 -18.99371245 31.33576245 -14.8125 32.875 C-9.45225877 33.39687167 -4.07602895 32.98311136 1.1875 31.875 C1.6825 34.35 1.6825 34.35 2.1875 36.875 C-3.25785609 40.25995108 -8.48971029 40.54873505 -14.8125 40.875 C-15.22853503 46.69949038 -14.5971847 50.13919543 -11.6875 55.2109375 C-10.8125 56.875 -10.8125 56.875 -10.8125 58.875 C-13.4525 58.875 -16.0925 58.875 -18.8125 58.875 C-20.88051193 53.31106314 -21.95679144 48.7098668 -21.5625 42.75 C-21.40512028 38.03466136 -21.98987569 35.93120064 -25.1875 32.4375 C-26.3927442 31.24686482 -27.60062585 30.05888629 -28.8125 28.875 C-31.57456983 24.31158027 -31.43778582 19.05933184 -30.8125 13.875 C-28.69399029 6.68221554 -23.79418956 2.24249109 -17.5 -1.5 C-11.24581275 -2.95446215 -5.78397276 -3.00303093 0 0 Z " fill="#B874A8" transform="translate(63.8125,83.125)"/>
<path d="M0 0 C0.99 0 1.98 0 3 0 C3 1.65 3 3.3 3 5 C3.94875 5.268125 4.8975 5.53625 5.875 5.8125 C9 7 9 7 11 10 C11.125 12.6875 11.125 12.6875 11 15 C9.02 15 7.04 15 5 15 C4.67 13.68 4.34 12.36 4 11 C2.35 11 0.7 11 -1 11 C-0.88523493 13.40063171 -0.88523493 13.40063171 0 16 C2.24312166 17.82520007 2.24312166 17.82520007 5 19.1875 C9.91739553 21.83479106 9.91739553 21.83479106 11 24 C11.50334178 29.20119843 11.50334178 29.20119843 11 32 C8.6875 34.5 8.6875 34.5 6 36 C5.01 36 4.02 36 3 36 C3 37.32 3 38.64 3 40 C2.01 40 1.02 40 0 40 C0 38.68 0 37.36 0 36 C-1.1446875 35.8453125 -1.1446875 35.8453125 -2.3125 35.6875 C-5.28334611 34.92751611 -6.27413043 34.50251088 -8 32 C-8.6875 28.8125 -8.6875 28.8125 -9 26 C-7.02 26 -5.04 26 -3 26 C-2.67 27.65 -2.34 29.3 -2 31 C-0.02 30.67 1.96 30.34 4 30 C3.84300252 27.57905505 3.84300252 27.57905505 3 25 C1.01684498 23.43215916 1.01684498 23.43215916 -1.4375 22.375 C-4.8086466 20.76247723 -5.85455648 20.21816528 -8 17 C-8.57265569 11.84609878 -8.57265569 11.84609878 -8 9 C-5.6875 6.5 -5.6875 6.5 -3 5 C-2.01 5 -1.02 5 0 5 C0 3.35 0 1.7 0 0 Z " fill="#786398" transform="translate(119,100)"/>
<path d="M0 0 C-0.54251269 5.53362939 -1.22724383 9.57822562 -5.54296875 13.34765625 C-10.64480318 17.21063463 -15.47851439 19.3836168 -22 19 C-21.4403647 13.12382934 -19.57252117 9.22502335 -15.0625 5.32421875 C-9.92146903 1.36449086 -6.61990282 -0.14710895 0 0 Z " fill="#FCFAFB" transform="translate(44,43)"/>
</svg>
