<?xml version="1.0" standalone="no"?>
<!DOCTYPE svg PUBLIC "-//W3C//DTD SVG 20010904//EN"
 "http://www.w3.org/TR/2001/REC-SVG-20010904/DTD/svg10.dtd">
<svg version="1.0" xmlns="http://www.w3.org/2000/svg"
 width="756.000000pt" height="1150.000000pt" viewBox="0 0 756.000000 1150.000000"
 preserveAspectRatio="xMidYMid meet">

<g transform="translate(0.000000,1150.000000) scale(0.100000,-0.100000)"
fill="#000000" stroke="none">
<path d="M1275 11459 c-294 -27 -387 -49 -570 -140 -268 -132 -480 -398 -560
-704 -44 -167 -48 -234 -52 -912 l-5 -653 -24 0 -24 0 2 -282 3 -283 22 -3 23
-3 0 -264 0 -264 -22 -3 -23 -3 0 -565 0 -565 23 -3 c22 -3 22 -4 20 -160 -3
-154 -3 -157 -26 -160 l-22 -3 2 -567 3 -567 23 -3 22 -3 0 -2675 0 -2674 180
0 180 0 0 5133 c0 3335 4 5165 10 5227 32 304 179 529 425 651 158 78 319 99
748 99 229 0 266 -2 297 -18 40 -19 58 -61 60 -132 2 -144 96 -303 212 -359
24 -11 75 -25 113 -31 48 -7 523 -10 1520 -8 1386 3 1452 4 1501 22 69 25 142
81 181 140 40 58 73 161 73 225 0 74 17 120 53 141 30 18 52 20 299 20 434 0
594 -21 753 -99 247 -122 391 -344 425 -653 7 -66 10 -1724 10 -5228 l0 -5130
180 0 180 0 2 2888 3 2887 23 3 22 3 -2 897 -3 897 -22 3 -22 3 -4 1387 c-4
1479 -3 1460 -52 1647 -80 304 -293 572 -560 704 -184 91 -262 111 -535 136
-142 13 -499 15 -2570 14 -1323 -1 -2445 -5 -2495 -10z"/>
<path d="M1247 10799 c-30 -17 -40 -58 -22 -85 12 -19 24 -24 55 -24 43 0 50
-9 24 -31 -12 -10 -22 -10 -47 -1 -36 13 -46 8 -31 -16 14 -22 73 -26 98 -7
14 10 21 31 24 69 4 48 1 57 -21 80 -28 28 -51 32 -80 15z m58 -54 c0 -35 -31
-47 -51 -20 -18 25 0 57 29 53 17 -2 22 -10 22 -33z"/>
<path d="M1515 10786 c-24 -24 -65 -97 -65 -116 0 -5 13 -10 29 -10 39 0 61
-9 61 -26 0 -22 16 -16 35 12 12 19 14 29 6 37 -6 6 -11 34 -11 63 0 62 -19
76 -55 40z m23 -63 c4 -26 -24 -51 -40 -35 -9 9 -8 18 2 37 15 29 34 28 38 -2z"/>
<path d="M5995 10794 c-53 -19 -73 -40 -57 -56 10 -10 18 -9 41 5 38 22 123
22 157 1 20 -13 28 -14 37 -5 16 16 -20 46 -71 61 -47 13 -58 12 -107 -6z"/>
<path d="M1632 10784 c-29 -20 -28 -36 3 -28 24 6 24 5 27 -63 4 -96 22 -81
26 22 2 77 1 85 -15 85 -10 0 -29 -7 -41 -16z"/>
<path d="M5795 10787 c-3 -7 -5 -47 -3 -88 3 -66 5 -74 23 -74 18 0 20 7 20
85 0 73 -2 85 -18 88 -9 2 -20 -3 -22 -11z"/>
<path d="M1384 10769 c-10 -17 13 -36 27 -22 12 12 4 33 -11 33 -5 0 -12 -5
-16 -11z"/>
<path d="M6317 10764 c-4 -4 -7 -31 -7 -60 0 -38 4 -53 16 -58 9 -3 73 -6 144
-6 147 0 153 3 148 77 l-3 48 -146 3 c-80 1 -148 -1 -152 -4z"/>
<path d="M5710 10690 c0 -68 1 -70 25 -70 24 0 25 2 25 70 0 68 -1 70 -25 70
-24 0 -25 -2 -25 -70z"/>
<path d="M6003 10728 c-22 -11 -29 -28 -17 -40 3 -3 20 -1 38 4 23 7 43 7 63
0 40 -14 65 0 42 24 -21 20 -96 28 -126 12z"/>
<path d="M5637 10714 c-4 -4 -7 -27 -7 -51 0 -40 2 -44 23 -41 19 3 22 9 22
48 0 32 -4 46 -15 48 -9 1 -19 0 -23 -4z"/>
<path d="M5554 10676 c-10 -26 1 -51 21 -51 23 0 32 30 15 50 -16 19 -29 19
-36 1z"/>
<path d="M1385 10671 c-3 -5 -1 -12 5 -16 12 -7 30 2 30 16 0 12 -27 12 -35 0z"/>
<path d="M6030 10656 c0 -7 7 -19 15 -26 12 -10 18 -10 30 0 25 21 18 40 -15
40 -19 0 -30 -5 -30 -14z"/>
<path d="M2785 9258 c-10 -39 -1 -293 10 -293 6 0 11 36 13 83 3 81 3 83 35
102 40 25 42 25 67 0 17 -17 20 -33 20 -100 0 -47 4 -80 10 -80 6 0 10 34 10
83 0 104 -15 131 -69 125 -20 -3 -44 -8 -53 -12 -16 -7 -18 -2 -18 47 0 58
-15 85 -25 45z"/>
<path d="M1452 9123 c-1 -84 1 -153 6 -153 4 0 6 46 4 102 -4 187 -8 205 -10
51z"/>
<path d="M1550 9120 c0 -93 4 -150 10 -150 6 0 10 57 10 150 0 93 -4 150 -10
150 -6 0 -10 -57 -10 -150z"/>
<path d="M1100 9200 l-5 -65 -82 -3 -83 -3 0 61 c0 33 -4 60 -10 60 -6 0 -10
-53 -10 -140 0 -87 4 -140 10 -140 6 0 10 28 10 64 0 73 3 76 85 76 82 0 85
-3 85 -76 0 -35 3 -64 8 -64 6 0 6 115 -1 245 -3 48 -3 48 -7 -15z"/>
<path d="M2070 9240 c-42 -42 -18 -86 67 -129 54 -27 69 -53 53 -91 -23 -55
-98 -59 -141 -7 -15 18 -18 19 -19 5 0 -27 48 -58 90 -58 56 0 90 31 90 83 0
45 -2 47 -102 106 -47 28 -51 62 -12 88 25 16 28 16 57 0 34 -20 52 -13 23 9
-29 21 -82 18 -106 -6z"/>
<path d="M3030 9250 c0 -5 5 -10 10 -10 6 0 10 5 10 10 0 6 -4 10 -10 10 -5 0
-10 -4 -10 -10z"/>
<path d="M6261 9246 c-12 -14 -14 -84 -4 -138 8 -50 57 -47 67 5 17 85 17 115
1 131 -20 20 -49 21 -64 2z"/>
<path d="M1231 9156 c-88 -93 2 -243 109 -181 24 14 22 15 -26 9 -45 -5 -55
-3 -73 15 -13 13 -21 32 -19 44 3 20 10 22 76 25 72 3 72 3 72 31 0 69 -92
107 -139 57z m93 -7 c17 -14 26 -29 24 -43 -3 -18 -11 -21 -57 -24 -30 -2 -58
1 -62 5 -14 14 3 53 30 68 34 19 34 19 65 -6z"/>
<path d="M1671 9149 c-26 -25 -31 -39 -31 -76 0 -38 5 -50 35 -80 32 -32 40
-35 73 -30 24 4 47 17 66 38 25 28 28 37 23 82 -3 41 -10 55 -33 74 -43 34
-94 31 -133 -8z m127 -15 c15 -17 22 -38 22 -65 0 -79 -82 -118 -136 -64 -21
21 -25 33 -22 72 3 41 7 50 37 70 40 27 65 23 99 -13z"/>
<path d="M2321 9166 c-32 -18 -50 -53 -51 -100 0 -32 6 -45 36 -72 37 -36 70
-42 107 -23 40 22 56 52 57 102 0 41 -5 53 -29 78 -33 32 -78 38 -120 15z m85
-15 c43 -26 60 -71 44 -112 -39 -92 -160 -67 -160 33 0 39 23 76 54 88 29 12
27 12 62 -9z"/>
<path d="M2587 9169 c-9 -6 -27 -7 -39 -3 -17 5 -20 3 -15 -11 4 -9 7 -79 7
-156 0 -86 4 -139 10 -139 6 0 10 23 10 50 l0 50 35 0 c43 0 90 23 105 49 5
11 10 42 10 69 0 40 -5 54 -26 76 -28 27 -66 33 -97 15z m68 -15 c20 -8 45
-56 45 -87 0 -14 -13 -39 -30 -57 -24 -26 -35 -31 -67 -28 l-38 3 -3 67 c-2
57 0 70 18 88 20 20 45 25 75 14z"/>
<path d="M3030 9076 c0 -64 4 -106 10 -106 6 0 10 40 10 99 0 56 -4 103 -10
106 -6 4 -10 -32 -10 -99z"/>
<path d="M3163 9165 c-13 -9 -28 -33 -34 -54 -32 -106 42 -180 136 -136 29 14
29 14 -21 8 -29 -3 -60 -1 -71 6 -21 11 -39 58 -28 70 4 3 39 8 78 11 l72 5
-3 30 c-6 60 -80 95 -129 60z m70 -6 c26 -12 51 -54 42 -70 -4 -5 -33 -9 -66
-9 -56 0 -59 1 -59 24 0 15 11 33 26 45 31 25 27 24 57 10z"/>
<path d="M6351 8996 c-14 -25 -7 -66 11 -66 6 0 8 13 5 34 -3 19 0 39 6 45 7
7 7 11 1 11 -6 0 -16 -11 -23 -24z"/>
<path d="M3360 8980 c0 -5 7 -10 15 -10 8 0 15 5 15 10 0 6 -7 10 -15 10 -8 0
-15 -4 -15 -10z"/>
<path d="M1500 7520 l0 -130 28 0 c23 1 24 2 10 11 -14 8 -18 23 -18 69 0 53
3 61 25 76 22 14 30 15 50 4 54 -29 53 -114 -2 -144 -25 -13 -25 -15 -7 -16
45 0 74 65 54 125 -14 43 -39 58 -85 49 l-35 -6 0 46 c0 25 -4 46 -10 46 -6 0
-10 -50 -10 -130z"/>
<path d="M2140 7520 c0 -80 4 -130 10 -130 6 0 10 20 10 45 0 33 4 45 15 45
17 0 45 -26 71 -65 9 -14 19 -23 22 -21 3 3 -8 22 -23 42 l-29 37 23 40 c12
21 21 41 18 43 -2 2 -10 -8 -18 -22 -14 -27 -54 -49 -70 -38 -5 3 -9 39 -9 80
0 43 -4 74 -10 74 -6 0 -10 -50 -10 -130z"/>
<path d="M900 7510 c0 -73 4 -120 10 -120 6 0 10 35 10 84 0 47 4 87 8 90 5 3
23 -13 41 -34 18 -22 39 -40 46 -40 8 0 26 16 41 35 43 57 54 48 54 -50 0 -50
4 -85 10 -85 6 0 10 47 10 120 0 66 -3 120 -7 120 -5 0 -28 -27 -53 -60 -24
-33 -49 -60 -55 -60 -5 0 -32 27 -58 60 -27 33 -51 60 -53 60 -2 0 -4 -54 -4
-120z"/>
<path d="M1745 7558 c-33 -19 -44 -41 -45 -84 0 -45 31 -85 66 -83 16 0 15 2
-5 10 -35 14 -50 39 -51 81 0 29 6 41 29 57 38 27 57 26 86 -4 41 -40 25 -134
-23 -136 -12 0 -13 -2 -4 -6 19 -7 60 34 67 68 7 32 -7 66 -39 91 -24 20 -53
22 -81 6z"/>
<path d="M1939 7539 c-32 -35 -36 -66 -14 -109 14 -27 50 -48 62 -36 4 3 1 6
-5 6 -7 0 -21 9 -32 20 -29 29 -27 84 5 115 30 31 55 32 83 3 42 -46 34 -109
-18 -135 -17 -8 -19 -13 -9 -13 31 0 60 34 66 77 5 37 2 46 -25 73 -40 40 -75
39 -113 -1z"/>
<path d="M2470 7555 c-16 -9 -29 -10 -37 -4 -8 8 -10 -11 -6 -73 7 -100 13
-114 13 -29 0 52 4 66 25 86 51 51 78 28 86 -72 l6 -78 1 76 c2 62 -1 79 -16
92 -22 20 -39 21 -72 2z"/>
<path d="M2670 7550 c-11 -11 -20 -32 -20 -47 0 -14 -7 -34 -15 -43 -12 -13
-14 -30 -9 -75 9 -72 29 -95 82 -94 l37 1 -39 8 c-43 8 -68 34 -64 65 2 16 12
21 47 23 70 5 91 -4 91 -38 0 -17 -7 -34 -17 -40 -17 -10 -16 -10 2 -8 11 2
24 15 30 32 14 41 -19 66 -89 66 -58 0 -82 11 -73 34 5 12 20 16 61 16 48 0
58 3 72 25 9 13 14 30 11 37 -2 7 -1 20 4 29 7 13 2 18 -23 23 -50 10 -67 7
-88 -14z m72 -2 c40 -33 19 -88 -32 -88 -47 0 -64 46 -30 80 23 23 40 25 62 8z"/>
<path d="M2856 7548 c-20 -29 -7 -52 44 -72 31 -12 40 -21 40 -40 0 -29 -26
-40 -73 -31 -24 5 -28 4 -17 -4 23 -16 76 -13 94 5 28 28 19 49 -34 78 -56 31
-67 61 -26 72 14 3 30 3 37 -2 8 -4 9 -3 5 4 -12 20 -54 14 -70 -10z"/>
<path d="M1216 7498 c13 -35 29 -71 34 -80 19 -34 12 -75 -17 -98 l-28 -22 25
4 c22 3 29 15 56 98 17 53 35 111 39 130 12 55 -8 25 -26 -38 -9 -31 -21 -57
-28 -57 -7 0 -24 28 -38 63 -14 34 -29 62 -33 62 -5 0 2 -28 16 -62z"/>
<path d="M2344 7475 c0 -49 1 -71 3 -48 2 23 2 64 0 90 -2 26 -3 8 -3 -42z"/>
<path d="M5901 7484 c-1 -6 11 -38 25 -70 24 -55 27 -57 40 -39 18 24 18 41 0
26 -11 -9 -19 -1 -39 41 -14 29 -26 48 -26 42z"/>
<path d="M5992 7461 c-7 -19 -10 -36 -7 -39 6 -7 26 49 22 62 -2 6 -9 -5 -15
-23z"/>
<path d="M6610 7431 c0 -33 5 -63 10 -66 6 -4 10 18 10 59 0 37 -4 66 -10 66
-6 0 -10 -26 -10 -59z"/>
<path d="M6673 7425 c0 -38 2 -53 4 -32 2 20 2 52 0 70 -2 17 -4 1 -4 -38z"/>
<path d="M6145 7453 c22 -6 36 -23 29 -35 -9 -14 -43 -9 -52 9 -9 14 -10 14
-17 -6 -9 -29 19 -71 48 -71 22 0 22 0 -2 13 -41 21 -37 37 8 37 28 0 41 4 41
13 0 20 -33 47 -56 46 -18 -1 -18 -2 1 -6z"/>
<path d="M6230 7455 c0 -17 33 -95 41 -95 4 0 12 12 17 28 l9 27 13 -27 c7
-16 16 -28 21 -28 9 0 41 81 35 88 -3 2 -10 -7 -15 -22 -12 -31 -19 -32 -37
-8 -12 16 -14 16 -28 -3 -16 -22 -17 -22 -39 20 -9 17 -16 26 -17 20z"/>
<path d="M6482 7448 c-7 -7 -12 -26 -12 -43 0 -36 15 -55 45 -55 18 0 17 2 -5
13 -18 9 -25 21 -25 42 0 21 7 33 25 42 22 11 23 13 5 13 -12 0 -26 -5 -33
-12z"/>
<path d="M6550 7460 c-7 -40 -4 -100 5 -97 14 5 18 63 6 84 -6 10 -11 16 -11
13z"/>
<path d="M6053 7405 c0 -27 2 -38 4 -22 2 15 2 37 0 50 -2 12 -4 0 -4 -28z"/>
<path d="M1138 6633 c-15 -4 -18 -17 -18 -88 0 -95 7 -102 81 -90 49 8 66 34
49 74 -6 16 -8 39 -5 53 4 15 1 29 -7 35 -16 13 -76 23 -100 16z m56 -29 c9
-3 16 -12 16 -19 0 -16 -35 -29 -50 -20 -14 9 -13 32 3 38 6 3 13 6 14 6 1 1
8 -2 17 -5z m26 -95 c0 -15 -7 -19 -35 -19 -28 0 -35 4 -35 19 0 20 23 30 53
23 9 -2 17 -13 17 -23z"/>
<path d="M1610 6550 c0 -73 3 -90 15 -90 8 0 15 9 15 20 0 11 7 20 15 20 8 0
19 -9 25 -20 12 -22 40 -27 40 -8 0 6 -10 22 -22 35 l-21 23 22 24 c29 31 9
47 -23 17 -32 -30 -36 -27 -36 24 0 33 -4 45 -15 45 -12 0 -15 -17 -15 -90z"/>
<path d="M1756 6633 c-11 -11 -6 -23 9 -23 8 0 15 4 15 9 0 13 -16 22 -24 14z"/>
<path d="M2400 6625 c0 -9 5 -15 11 -13 6 2 11 8 11 13 0 5 -5 11 -11 13 -6 2
-11 -4 -11 -13z"/>
<path d="M2566 6624 c-3 -9 -6 -42 -6 -74 0 -32 3 -65 6 -74 11 -29 24 -17 24
23 0 47 24 78 46 60 8 -7 14 -30 14 -55 0 -32 4 -44 15 -44 11 0 15 12 15 53
0 67 -9 80 -51 75 -31 -3 -34 0 -37 25 -4 30 -17 36 -26 11z"/>
<path d="M2957 6633 c-4 -3 -7 -44 -7 -90 0 -67 3 -83 15 -83 8 0 15 3 16 8
14 135 5 195 -24 165z"/>
<path d="M2821 6586 c-33 -76 -45 -115 -37 -123 4 -4 12 0 17 10 13 23 99 25
99 2 0 -8 7 -15 15 -15 8 0 15 5 15 10 0 24 -65 160 -77 160 -6 0 -21 -20 -32
-44z m49 -41 c0 -16 -27 -28 -36 -14 -7 12 15 41 27 33 5 -3 9 -11 9 -19z"/>
<path d="M2467 6596 c-9 -13 -12 -27 -7 -32 5 -5 10 -29 12 -54 3 -41 6 -45
31 -48 15 -2 27 1 27 7 0 6 -4 11 -10 11 -14 0 -13 73 1 87 8 8 5 17 -10 32
-26 26 -25 26 -44 -3z"/>
<path d="M1297 6572 c-10 -10 -17 -33 -17 -50 0 -73 96 -96 130 -31 15 27 3
77 -20 89 -29 16 -75 12 -93 -8z m88 -32 c9 -15 -3 -47 -21 -54 -42 -16 -76
51 -37 73 18 10 46 0 58 -19z"/>
<path d="M1456 6568 c-24 -34 -20 -73 10 -97 15 -12 35 -21 46 -21 26 0 68 44
68 73 0 59 -91 92 -124 45z m89 -27 c12 -40 -20 -70 -56 -51 -20 11 -23 27
-13 54 9 23 61 21 69 -3z"/>
<path d="M1750 6526 c0 -53 3 -66 15 -66 13 0 15 11 13 62 -2 38 -8 63 -15 66
-10 3 -13 -14 -13 -62z"/>
<path d="M1813 6574 c-2 -6 -3 -33 -1 -59 4 -61 28 -75 28 -17 0 44 21 75 45
66 10 -4 15 -21 15 -55 0 -37 4 -49 15 -49 11 0 15 12 15 53 0 28 -4 58 -8 64
-10 16 -103 13 -109 -3z"/>
<path d="M1976 6568 c-22 -31 -20 -60 5 -93 18 -22 28 -26 50 -21 16 3 29 2
29 -3 0 -14 -23 -19 -53 -14 -40 8 -36 -23 3 -32 33 -7 79 15 81 38 0 6 2 26
4 42 2 17 1 47 -2 68 -5 37 -5 37 -53 37 -39 0 -52 -4 -64 -22z m84 -47 c0
-33 -22 -46 -51 -31 -24 13 -25 56 -2 69 26 14 53 -5 53 -38z"/>
<path d="M2198 6584 c-4 -3 3 -32 15 -65 21 -60 44 -76 54 -39 7 26 17 25 37
-2 15 -23 16 -23 31 -4 8 11 15 28 15 37 0 10 5 21 10 24 14 8 13 55 -1 55 -6
0 -16 -13 -22 -30 -13 -35 -22 -38 -37 -10 -14 26 -27 25 -35 -1 -8 -26 -28
-20 -35 11 -6 24 -21 35 -32 24z"/>
<path d="M2400 6526 c0 -53 3 -66 15 -66 13 0 15 11 13 62 -2 38 -8 63 -15 66
-10 3 -13 -14 -13 -62z"/>
<path d="M3038 6580 c-9 -6 -19 -24 -23 -40 -13 -58 45 -107 94 -80 29 15 27
34 -3 26 -26 -7 -56 1 -56 14 0 5 19 10 42 12 32 2 44 8 46 21 8 42 -56 72
-100 47z m49 -38 c-34 -4 -48 5 -27 18 8 5 22 4 34 -3 20 -11 20 -12 -7 -15z"/>
<path d="M3160 6576 c0 -7 7 -19 15 -26 8 -7 15 -20 15 -30 0 -10 -7 -23 -15
-30 -8 -7 -15 -16 -15 -21 0 -15 30 -10 36 6 4 8 12 15 19 15 7 0 15 -7 19
-15 6 -18 36 -20 36 -3 0 6 -8 20 -17 30 -14 16 -15 22 -5 36 31 43 26 68 -8
37 -19 -17 -50 -15 -50 5 0 5 -7 10 -15 10 -8 0 -15 -6 -15 -14z"/>
<path d="M6240 6300 c0 -6 11 -23 25 -38 14 -15 25 -29 25 -33 0 -3 -11 -16
-25 -29 -24 -23 -33 -50 -17 -50 11 0 82 74 82 86 0 14 -63 74 -78 74 -7 0
-12 -5 -12 -10z"/>
<path d="M1650 6271 c0 -15 -8 -21 -32 -23 -23 -2 -37 -11 -48 -30 -13 -25
-13 -31 0 -55 13 -24 23 -28 63 -31 l47 -3 0 80 c0 65 -3 81 -15 81 -8 0 -15
-9 -15 -19z m-2 -77 c4 -29 -23 -51 -43 -34 -16 13 -20 42 -8 54 14 14 48 1
51 -20z"/>
<path d="M2118 6284 c-5 -4 -8 -40 -8 -81 l0 -73 43 0 c57 0 82 26 81 82 -1
22 -8 46 -15 53 -16 16 -91 30 -101 19z m82 -43 c16 -32 12 -59 -14 -76 -36
-24 -56 -10 -56 39 0 24 3 46 7 49 13 14 53 6 63 -12z"/>
<path d="M2850 6210 l0 -80 43 0 c51 0 67 13 67 56 0 40 -22 64 -61 64 -22 0
-29 5 -29 20 0 11 -4 20 -10 20 -6 0 -10 -33 -10 -80z m84 -6 c8 -20 -11 -54
-29 -54 -8 0 -19 9 -25 19 -13 25 -13 27 5 45 17 17 41 12 49 -10z"/>
<path d="M1120 6205 c0 -43 4 -75 10 -75 6 0 10 18 10 40 0 40 15 54 26 25 9
-22 42 -18 49 5 10 32 25 13 25 -31 0 -42 14 -53 24 -16 10 38 7 115 -6 123
-6 4 -22 -7 -38 -27 -24 -28 -30 -31 -44 -20 -8 7 -18 21 -21 32 -4 10 -13 19
-21 19 -11 0 -14 -17 -14 -75z"/>
<path d="M3280 6270 c0 -5 14 -10 30 -10 17 0 30 -2 30 -5 0 -2 -9 -27 -20
-55 -11 -28 -20 -55 -20 -60 0 -20 21 -9 30 15 5 14 19 44 30 67 11 23 20 45
20 50 0 4 -22 8 -50 8 -27 0 -50 -4 -50 -10z"/>
<path d="M3520 6270 c0 -5 14 -10 31 -10 27 0 30 -3 23 -22 -3 -13 -15 -40
-25 -60 -13 -25 -15 -39 -8 -44 6 -3 14 -2 18 2 8 9 61 131 61 140 0 2 -22 4
-50 4 -27 0 -50 -4 -50 -10z"/>
<path d="M4078 6252 c-6 -41 0 -53 26 -46 14 3 27 -1 35 -10 19 -23 -4 -49
-36 -41 -16 4 -23 1 -23 -10 0 -10 10 -15 33 -15 40 0 57 15 57 50 0 32 -17
50 -48 50 -31 0 -24 24 9 28 46 7 44 22 -3 22 -43 0 -46 -2 -50 -28z"/>
<path d="M1306 6228 c-9 -12 -16 -29 -16 -38 0 -9 7 -26 16 -38 31 -45 104
-17 104 40 0 53 -74 79 -104 36z m72 -34 c4 -29 -23 -51 -43 -34 -16 13 -20
42 -8 54 14 14 48 1 51 -20z"/>
<path d="M1444 6241 c-8 -9 -4 -111 5 -111 6 0 11 19 13 43 2 34 7 43 25 45
19 3 22 -2 25 -40 4 -53 22 -57 26 -6 5 56 -11 78 -54 75 -20 -1 -37 -4 -40
-6z"/>
<path d="M1716 6228 c-20 -28 -20 -48 0 -76 12 -17 25 -22 60 -22 l45 0 -3 58
-3 57 -42 3 c-33 2 -44 -1 -57 -20z m72 -34 c4 -29 -23 -51 -43 -34 -16 13
-20 42 -8 54 14 14 48 1 51 -20z"/>
<path d="M1858 6244 c-9 -9 -10 -76 -2 -98 4 -10 18 -16 35 -16 16 0 29 -4 29
-10 0 -5 -13 -10 -30 -10 -32 0 -40 -14 -15 -24 25 -9 64 11 70 37 9 34 2 122
-10 122 -5 0 -11 -18 -13 -40 -2 -22 -7 -44 -12 -49 -16 -16 -39 14 -42 56 -2
22 -6 36 -10 32z"/>
<path d="M2277 6232 c-22 -24 -22 -66 -1 -87 19 -19 75 -17 82 3 3 8 -6 12
-29 10 -18 -2 -34 2 -36 10 -3 8 8 12 36 12 33 0 41 4 41 18 0 24 -31 52 -57
52 -11 0 -27 -8 -36 -18z m53 -23 c0 -5 -7 -9 -15 -9 -15 0 -20 12 -9 23 8 8
24 -1 24 -14z"/>
<path d="M2406 6228 c-35 -49 -8 -101 48 -96 17 2 29 8 26 13 -2 6 -11 9 -18
7 -19 -4 -42 17 -42 39 0 22 26 38 52 31 14 -3 17 0 12 12 -9 24 -60 20 -78
-6z"/>
<path d="M2527 6232 c-20 -22 -22 -73 -5 -90 17 -17 78 -16 78 2 0 10 -9 14
-26 13 -15 -1 -29 4 -31 11 -3 8 7 12 31 12 43 0 53 13 32 45 -20 30 -56 33
-79 7z m53 -22 c0 -5 -9 -10 -20 -10 -11 0 -20 5 -20 10 0 6 9 10 20 10 11 0
20 -4 20 -10z"/>
<path d="M2644 6241 c-2 -2 -4 -29 -4 -58 0 -64 23 -71 28 -9 6 67 52 57 52
-11 0 -35 14 -44 24 -17 3 9 6 29 6 45 0 22 5 29 19 29 16 0 20 -8 23 -40 2
-22 8 -41 13 -43 14 -3 18 68 5 93 -11 21 -44 27 -55 10 -4 -7 -12 -7 -24 0
-18 9 -78 10 -87 1z"/>
<path d="M2996 6228 c-32 -46 -5 -101 47 -96 17 2 32 9 35 16 3 9 -3 11 -20 7
-16 -4 -29 -1 -37 9 -12 14 -8 16 28 16 33 0 41 4 41 18 0 24 -31 52 -58 52
-11 0 -28 -10 -36 -22z m54 -18 c0 -5 -7 -10 -15 -10 -8 0 -15 5 -15 10 0 6 7
10 15 10 8 0 15 -4 15 -10z"/>
<path d="M3120 6188 c0 -32 4 -58 10 -58 9 0 14 21 11 42 -2 19 20 58 34 58 8
0 15 4 15 9 0 5 -16 9 -35 8 l-35 -1 0 -58z"/>
<path d="M3650 6235 c-7 -9 -13 -29 -13 -45 0 -44 20 -61 67 -58 l41 3 0 55 0
55 -41 3 c-28 2 -45 -2 -54 -13z m68 -41 c4 -29 -23 -51 -43 -34 -16 13 -20
42 -8 54 14 14 48 1 51 -20z"/>
<path d="M3783 6234 c-8 -21 1 -99 12 -99 6 0 11 19 13 43 2 33 7 42 21 42 19
0 31 -26 31 -67 0 -13 5 -23 10 -23 6 0 10 17 10 38 0 21 5 43 12 50 19 19 38
-6 38 -49 0 -42 14 -52 25 -18 10 30 -4 89 -22 96 -9 3 -23 1 -33 -5 -10 -6
-23 -7 -31 -1 -20 12 -80 8 -86 -7z"/>
<path d="M4205 6241 c-11 -10 -5 -151 6 -151 6 0 13 9 16 19 3 13 15 21 36 23
22 2 36 11 47 31 13 24 13 30 0 55 -13 23 -23 27 -58 27 -24 1 -45 -1 -47 -4z
m83 -47 c4 -29 -23 -51 -43 -34 -16 13 -20 42 -8 54 14 14 48 1 51 -20z"/>
<path d="M4363 6242 c-21 -3 -23 -9 -23 -59 0 -39 4 -54 13 -51 6 3 13 20 15
39 2 19 9 40 15 47 16 20 37 -12 37 -55 0 -48 18 -40 22 10 2 34 7 43 25 45
19 3 22 -2 25 -40 2 -24 8 -43 13 -43 14 0 18 56 6 86 -8 24 -14 26 -68 25
-32 0 -68 -2 -80 -4z"/>
<path d="M3990 6195 c0 -9 9 -15 25 -15 16 0 25 6 25 15 0 9 -9 15 -25 15 -16
0 -25 -6 -25 -15z"/>
<path d="M1982 6125 c3 -30 22 -28 26 3 2 15 -2 22 -12 22 -11 0 -15 -8 -14
-25z"/>
<path d="M3394 6134 c3 -9 6 -21 6 -27 0 -6 7 -4 16 5 18 18 11 38 -13 38 -10
0 -13 -6 -9 -16z"/>
<path d="M3160 5882 c0 -40 4 -72 8 -72 8 0 5 130 -3 139 -3 2 -5 -28 -5 -67z"/>
<path d="M2480 5920 c0 -19 3 -21 12 -12 9 9 9 15 0 24 -9 9 -12 7 -12 -12z"/>
<path d="M3705 5930 c3 -5 8 -10 11 -10 2 0 4 5 4 10 0 6 -5 10 -11 10 -5 0
-7 -4 -4 -10z"/>
<path d="M3980 5929 c0 -5 5 -7 10 -4 6 3 10 8 10 11 0 2 -4 4 -10 4 -5 0 -10
-5 -10 -11z"/>
<path d="M4150 5930 c0 -5 5 -10 11 -10 5 0 7 5 4 10 -3 6 -8 10 -11 10 -2 0
-4 -4 -4 -10z"/>
<path d="M4215 5930 c-3 -5 1 -10 9 -10 9 0 16 5 16 10 0 6 -4 10 -9 10 -6 0
-13 -4 -16 -10z"/>
<path d="M2068 5909 c-10 -10 -14 -19 -9 -19 13 0 23 -34 15 -53 -3 -9 -13
-18 -22 -20 -10 -3 -5 -5 11 -6 27 -1 27 0 27 59 0 33 -1 60 -2 59 -2 0 -11
-9 -20 -20z"/>
<path d="M2582 5910 c0 -14 2 -19 5 -12 2 6 2 18 0 25 -3 6 -5 1 -5 -13z"/>
<path d="M3600 5910 c0 -19 3 -21 12 -12 9 9 9 15 0 24 -9 9 -12 7 -12 -12z"/>
<path d="M4053 5875 c0 -27 2 -38 4 -22 2 15 2 37 0 50 -2 12 -4 0 -4 -28z"/>
<path d="M1495 5900 c-3 -5 3 -10 15 -10 12 0 18 5 15 10 -3 6 -10 10 -15 10
-5 0 -12 -4 -15 -10z"/>
<path d="M1378 5893 c-2 -5 -1 -26 2 -48 l6 -40 5 48 c4 41 -3 62 -13 40z"/>
<path d="M1442 5880 c14 -22 24 -19 15 5 -4 8 -11 15 -17 15 -6 0 -6 -7 2 -20z"/>
<path d="M1567 5893 c-10 -10 -8 -56 3 -73 7 -11 10 -2 10 33 0 48 -1 52 -13
40z"/>
<path d="M1610 5886 c0 -24 17 -28 23 -6 3 13 0 20 -9 20 -8 0 -14 -6 -14 -14z"/>
<path d="M1690 5890 c0 -5 4 -10 9 -10 6 0 13 5 16 10 3 6 -1 10 -9 10 -9 0
-16 -4 -16 -10z"/>
<path d="M1745 5890 c3 -5 10 -10 16 -10 5 0 9 5 9 10 0 6 -7 10 -16 10 -8 0
-12 -4 -9 -10z"/>
<path d="M2301 5853 c1 -46 2 -47 8 -13 4 20 11 41 15 48 4 7 1 12 -8 12 -13
0 -16 -11 -15 -47z"/>
<path d="M2368 5860 c2 -22 6 -40 8 -40 2 0 4 18 4 40 0 22 -3 40 -8 40 -4 0
-6 -18 -4 -40z"/>
<path d="M2510 5896 c0 -2 8 -10 18 -17 15 -13 16 -12 3 4 -13 16 -21 21 -21
13z"/>
<path d="M2970 5863 c0 -43 5 -41 13 5 4 18 2 32 -3 32 -6 0 -10 -16 -10 -37z"/>
<path d="M3038 5863 c5 -59 10 -63 11 -10 1 26 -3 47 -7 47 -4 0 -6 -17 -4
-37z"/>
<path d="M3090 5896 c0 -2 7 -6 15 -10 8 -3 15 -1 15 4 0 6 -7 10 -15 10 -8 0
-15 -2 -15 -4z"/>
<path d="M3400 5853 c0 -25 2 -44 4 -42 8 10 13 89 5 89 -5 0 -9 -21 -9 -47z"/>
<path d="M3963 5884 c-3 -8 -1 -20 6 -27 8 -8 11 -4 11 16 0 30 -7 35 -17 11z"/>
<path d="M3660 5874 c0 -8 5 -12 10 -9 6 4 8 11 5 16 -9 14 -15 11 -15 -7z"/>
<path d="M3700 5881 c0 -6 5 -13 10 -16 6 -3 10 1 10 9 0 9 -4 16 -10 16 -5 0
-10 -4 -10 -9z"/>
<path d="M4136 5862 l-19 -27 24 22 c12 12 21 24 18 27 -2 2 -13 -8 -23 -22z"/>
<path d="M1870 5857 c0 -16 3 -18 12 -9 7 7 28 12 47 12 45 0 37 6 -16 13 -39
5 -43 3 -43 -16z"/>
<path d="M2850 5856 c0 -14 3 -16 13 -8 6 6 28 12 47 14 32 3 31 4 -12 8 -42
5 -48 3 -48 -14z"/>
<path d="M3280 5851 c0 -22 1 -23 13 -8 6 9 28 17 47 19 32 3 31 4 -12 8 -46
5 -48 4 -48 -19z"/>
<path d="M3557 5834 c-11 -14 -17 -26 -15 -28 1 -1 19 1 38 5 24 4 27 7 12 8
-19 1 -22 5 -17 21 8 26 4 25 -18 -6z"/>
<path d="M2565 5840 c-7 -12 2 -30 16 -30 5 0 9 9 9 20 0 21 -15 27 -25 10z"/>
<path d="M2770 5837 c0 -19 16 -31 24 -18 3 5 -1 14 -9 21 -12 10 -15 10 -15
-3z"/>
<path d="M2630 5831 c0 -10 19 -25 25 -20 1 2 -3 10 -11 17 -8 7 -14 8 -14 3z"/>
<path d="M2240 5820 c-9 -6 -10 -10 -3 -10 6 0 15 5 18 10 8 12 4 12 -15 0z"/>
<path d="M3865 5820 c-10 -17 -4 -19 40 -10 22 4 30 8 18 9 -12 0 -28 4 -36 7
-8 3 -18 0 -22 -6z"/>
<path d="M4100 5814 c0 -11 5 -14 16 -10 9 3 25 6 37 7 20 1 20 2 -3 9 -39 13
-50 11 -50 -6z"/>
<path d="M1148 5813 c6 -2 18 -2 25 0 6 3 1 5 -13 5 -14 0 -19 -2 -12 -5z"/>
<path d="M2878 5813 c7 -3 16 -2 19 1 4 3 -2 6 -13 5 -11 0 -14 -3 -6 -6z"/>
<path d="M3208 5813 c6 -2 18 -2 25 0 6 3 1 5 -13 5 -14 0 -19 -2 -12 -5z"/>
<path d="M3308 5813 c7 -3 16 -2 19 1 4 3 -2 6 -13 5 -11 0 -14 -3 -6 -6z"/>
<path d="M3673 5813 c9 -2 25 -2 35 0 9 3 1 5 -18 5 -19 0 -27 -2 -17 -5z"/>
<path d="M4003 5813 c9 -2 23 -2 30 0 6 3 -1 5 -18 5 -16 0 -22 -2 -12 -5z"/>
<path d="M1616 4993 c-3 -3 -6 -46 -6 -95 0 -90 11 -112 31 -61 l10 26 27 -26
c45 -43 60 -28 22 21 l-20 25 20 22 c11 12 20 24 20 28 0 13 -27 7 -40 -8 -23
-28 -40 -18 -40 24 0 38 -10 57 -24 44z"/>
<path d="M2573 4989 c-13 -13 -18 -134 -7 -163 11 -29 24 -17 24 22 0 84 57
99 62 16 4 -70 28 -70 28 -1 0 67 -18 91 -61 82 -25 -6 -28 -4 -31 25 -2 25
-5 29 -15 19z"/>
<path d="M1127 4983 c-4 -3 -7 -44 -7 -90 l0 -83 53 0 c40 0 58 5 70 18 19 21
22 48 6 58 -6 4 -8 20 -5 39 9 45 -13 65 -68 65 -23 0 -46 -3 -49 -7z m78 -43
c0 -18 -33 -26 -47 -12 -6 6 -7 15 -3 22 10 16 50 8 50 -10z m-1 -56 c9 -3 16
-15 16 -25 0 -14 -7 -19 -29 -19 -33 0 -46 13 -37 35 6 16 24 19 50 9z"/>
<path d="M1752 4979 c2 -6 8 -10 13 -10 5 0 11 4 13 10 2 6 -4 11 -13 11 -9 0
-15 -5 -13 -11z"/>
<path d="M2402 4981 c2 -7 7 -12 11 -12 12 1 9 15 -3 20 -7 2 -11 -2 -8 -8z"/>
<path d="M2796 4983 c-3 -4 -6 -44 -6 -90 0 -63 3 -84 13 -81 6 3 14 27 17 54
l5 49 19 -27 c10 -16 24 -28 31 -28 7 0 21 12 31 28 l19 27 5 -49 c3 -27 11
-51 18 -54 9 -3 12 18 12 82 0 98 -13 111 -50 51 -27 -44 -42 -44 -66 0 -18
34 -37 49 -48 38z"/>
<path d="M3272 4979 c2 -6 8 -10 13 -10 5 0 11 4 13 10 2 6 -4 11 -13 11 -9 0
-15 -5 -13 -11z"/>
<path d="M2465 4950 c-14 -16 -16 -23 -7 -32 7 -7 12 -28 12 -48 0 -40 14 -60
42 -60 19 0 24 15 8 25 -13 8 -13 68 1 82 8 8 6 17 -7 32 -23 26 -26 26 -49 1z"/>
<path d="M1302 4930 c-45 -42 -17 -120 42 -120 48 0 70 21 70 65 0 65 -66 98
-112 55z m72 -26 c29 -29 12 -64 -31 -64 -27 0 -42 42 -23 65 16 19 35 19 54
-1z"/>
<path d="M1466 4929 c-32 -25 -36 -77 -8 -102 42 -39 122 -5 122 50 0 29 -42
73 -68 73 -11 0 -31 -9 -46 -21z m68 -25 c19 -18 19 -20 6 -45 -16 -29 -58
-25 -66 6 -11 45 29 71 60 39z"/>
<path d="M1845 4941 c-29 -6 -30 -8 -30 -65 0 -39 4 -61 13 -63 8 -3 12 8 12
34 0 86 57 100 62 16 4 -62 22 -62 26 -1 5 79 -11 95 -83 79z"/>
<path d="M1981 4926 c-43 -45 -16 -116 45 -116 19 0 34 -4 34 -10 0 -5 -18
-10 -41 -10 -28 0 -39 -4 -37 -12 6 -18 69 -22 90 -6 19 15 30 85 22 138 -6
33 -8 35 -49 37 -33 1 -47 -3 -64 -21z m67 -15 c8 -5 12 -21 10 -37 -3 -25 -7
-29 -33 -29 -24 0 -31 5 -33 23 -6 39 25 63 56 43z"/>
<path d="M3011 4924 c-25 -32 -27 -61 -5 -92 13 -18 24 -22 65 -21 l49 2 0 62
c0 62 0 63 -31 69 -49 10 -56 8 -78 -20z m65 -12 c17 -11 22 -35 12 -54 -10
-21 -39 -23 -56 -6 -32 32 7 85 44 60z"/>
<path d="M3188 4943 c-27 -4 -28 -6 -28 -69 0 -50 3 -64 15 -64 11 0 15 12 15
50 0 45 3 50 25 56 25 6 36 35 13 33 -7 -1 -25 -4 -40 -6z"/>
<path d="M3353 4935 c-17 -12 -23 -26 -23 -54 0 -52 25 -73 81 -69 l44 3 3 63
c2 48 0 62 -11 62 -8 0 -27 2 -43 6 -18 3 -37 -1 -51 -11z m67 -29 c6 -8 10
-25 8 -38 -2 -18 -9 -23 -33 -23 -26 0 -30 4 -33 29 -5 41 32 62 58 32z"/>
<path d="M1750 4874 c0 -48 3 -65 13 -62 7 3 13 28 15 66 2 51 0 62 -13 62
-12 0 -15 -13 -15 -66z"/>
<path d="M2192 4928 c3 -7 13 -37 23 -65 11 -29 25 -53 32 -53 7 0 13 4 13 8
0 5 6 17 14 28 14 18 15 18 25 -9 6 -16 17 -27 23 -25 12 4 48 90 48 116 0 23
-22 12 -33 -18 -13 -35 -23 -38 -32 -10 -8 26 -32 26 -40 0 -8 -24 -23 -17
-35 16 -9 24 -46 35 -38 12z"/>
<path d="M2400 4875 c0 -49 3 -66 13 -62 8 2 12 24 12 62 0 38 -4 60 -12 63
-10 3 -13 -14 -13 -63z"/>
<path d="M3270 4875 c0 -51 3 -65 15 -65 12 0 15 14 15 65 0 51 -3 65 -15 65
-12 0 -15 -14 -15 -65z"/>
<path d="M6240 4674 c0 -3 12 -21 26 -40 l27 -35 -27 -27 c-25 -27 -34 -52
-18 -52 11 0 82 74 82 86 0 14 -63 74 -78 74 -7 0 -12 -3 -12 -6z"/>
<path d="M1126 4624 c-29 -28 -16 -60 30 -73 16 -4 31 -16 33 -26 3 -16 -2
-17 -39 -11 -32 5 -41 3 -38 -6 8 -23 55 -33 83 -18 37 20 35 67 -2 76 -30 7
-53 22 -53 34 0 14 31 20 49 10 23 -12 35 -1 20 17 -15 18 -64 17 -83 -3z"/>
<path d="M1593 4620 c-4 -14 -14 -20 -32 -20 -37 0 -51 -17 -51 -62 0 -45 24
-62 75 -52 l35 6 0 74 c0 47 -4 74 -11 74 -6 0 -13 -9 -16 -20z m-4 -58 c15
-29 -13 -66 -40 -52 -21 12 -25 40 -7 58 17 17 36 15 47 -6z"/>
<path d="M2054 4626 c-3 -7 -4 -42 -2 -77 l3 -64 36 -3 c78 -7 122 84 66 136
-27 25 -94 31 -103 8z m84 -28 c7 -7 12 -24 12 -38 0 -32 -17 -50 -47 -50 -26
0 -39 34 -29 75 7 27 42 35 64 13z"/>
<path d="M2792 4564 l3 -77 33 -3 c51 -6 72 10 72 54 0 45 -14 62 -51 62 -18
0 -28 6 -32 20 -3 11 -10 20 -16 20 -8 0 -11 -24 -9 -76z m76 4 c18 -18 15
-46 -6 -57 -23 -12 -42 3 -42 34 0 35 24 47 48 23z"/>
<path d="M3230 4619 c-16 -29 -8 -63 18 -74 26 -11 27 -18 7 -35 -19 -15 -19
-30 -2 -30 46 0 84 104 52 140 -24 26 -61 26 -75 -1z m58 -27 c3 -16 -2 -22
-17 -22 -26 0 -36 17 -20 36 16 19 33 13 37 -14z"/>
<path d="M3475 4624 c-19 -14 -19 -16 -3 -28 11 -8 18 -30 20 -62 5 -75 23
-53 23 28 0 75 -7 87 -40 62z"/>
<path d="M3994 4616 c-10 -43 -2 -61 29 -58 18 2 29 -2 34 -14 8 -22 -21 -44
-49 -36 -15 3 -19 1 -16 -9 6 -18 42 -23 68 -9 17 9 20 19 18 48 -3 32 -7 38
-38 49 -34 11 -31 17 13 25 33 6 23 23 -15 26 -33 3 -38 0 -44 -22z"/>
<path d="M1250 4552 c0 -52 12 -72 45 -72 34 0 57 32 53 76 -5 57 -28 56 -28
-1 0 -42 -2 -46 -22 -43 -19 2 -24 10 -26 46 -4 58 -22 53 -22 -6z"/>
<path d="M1380 4545 c0 -64 15 -73 24 -16 3 22 11 43 16 46 20 12 40 -17 40
-57 0 -24 4 -37 10 -33 11 7 14 74 4 99 -4 11 -19 16 -50 16 l-44 0 0 -55z"/>
<path d="M1662 4588 c-7 -7 -12 -29 -12 -50 0 -44 21 -60 72 -54 33 3 33 4 36
60 l3 56 -44 0 c-23 0 -48 -5 -55 -12z m56 -17 c8 -4 12 -19 10 -32 -2 -18 -9
-24 -28 -24 -28 0 -39 27 -20 50 14 17 20 18 38 6z"/>
<path d="M1790 4552 c0 -54 12 -72 49 -72 29 0 21 -12 -9 -14 -11 0 -21 -5
-23 -11 -3 -15 39 -18 62 -5 18 9 21 20 21 80 0 40 -4 70 -10 70 -10 0 -14
-21 -11 -47 3 -23 -19 -52 -34 -47 -10 4 -15 20 -15 50 0 32 -4 44 -15 44 -11
0 -15 -12 -15 -48z"/>
<path d="M2217 4582 c-23 -25 -21 -58 4 -83 23 -23 70 -23 77 0 3 10 -2 12
-21 8 -16 -5 -29 -2 -37 8 -11 13 -7 15 24 15 41 0 54 17 36 49 -14 27 -61 28
-83 3z m58 -11 c3 -5 1 -13 -5 -16 -15 -9 -43 3 -35 15 8 13 32 13 40 1z"/>
<path d="M2346 4578 c-22 -30 -20 -54 5 -79 23 -23 70 -23 77 0 3 10 -1 12
-15 9 -27 -7 -53 9 -53 31 0 23 23 43 44 39 8 -2 16 2 18 7 2 6 -11 11 -29 13
-23 2 -35 -3 -47 -20z"/>
<path d="M2462 4588 c-19 -19 -14 -73 7 -92 22 -20 72 -18 79 3 3 10 -2 12
-21 8 -16 -5 -29 -2 -37 8 -11 13 -7 15 24 15 44 0 57 22 31 50 -20 22 -65 26
-83 8z m58 -16 c0 -14 -11 -21 -26 -15 -8 3 -11 9 -8 14 7 11 34 12 34 1z"/>
<path d="M2587 4575 c-5 -31 3 -85 14 -85 5 0 9 15 9 34 0 35 21 63 40 51 5
-3 10 -24 10 -46 0 -53 23 -48 30 7 3 26 10 39 20 39 10 0 17 -13 20 -39 7
-56 30 -60 30 -4 0 24 -4 48 -8 54 -4 7 -37 12 -84 12 -71 -1 -76 -2 -81 -23z"/>
<path d="M2942 4588 c-22 -28 -22 -55 -1 -82 23 -29 68 -33 77 -7 3 10 -1 12
-16 9 -12 -3 -29 0 -39 8 -16 12 -14 13 24 14 50 0 60 12 39 45 -18 27 -66 34
-84 13z m51 -14 c11 -11 -3 -24 -18 -18 -8 4 -12 10 -9 15 6 11 18 12 27 3z"/>
<path d="M3067 4593 c-4 -3 -7 -28 -7 -55 0 -36 4 -48 15 -48 11 0 15 11 15
40 0 34 4 42 25 50 14 5 25 12 25 15 0 7 -65 6 -73 -2z"/>
<path d="M3557 4593 c-11 -11 -8 -141 4 -148 6 -4 13 2 16 14 4 15 13 21 34
21 51 0 78 69 41 103 -18 17 -82 23 -95 10z m71 -22 c8 -4 12 -19 10 -32 -2
-18 -9 -24 -28 -24 -28 0 -39 27 -20 50 14 17 20 18 38 6z"/>
<path d="M3696 4593 c-3 -3 -6 -28 -6 -55 0 -36 4 -48 15 -48 11 0 15 11 15
39 0 22 5 43 10 46 19 12 40 -16 40 -51 0 -19 5 -34 10 -34 6 0 10 15 10 34 0
35 21 63 40 51 5 -3 10 -24 10 -46 0 -28 4 -39 15 -39 11 0 15 11 15 43 0 23
-4 47 -8 53 -7 11 -155 18 -166 7z"/>
<path d="M4116 4584 c-10 -25 -7 -117 4 -134 8 -13 11 -11 16 8 5 16 14 22 35
22 49 0 78 69 43 104 -21 21 -90 21 -98 0z m82 -32 c4 -28 -14 -53 -33 -45
-21 7 -29 42 -14 59 17 21 43 13 47 -14z"/>
<path d="M4256 4593 c-3 -3 -6 -28 -6 -55 0 -36 4 -48 15 -48 10 0 15 10 15
29 0 39 9 61 25 61 16 0 25 -22 25 -62 0 -42 24 -31 28 13 2 19 8 39 13 44 14
14 39 -22 39 -57 0 -15 5 -28 10 -28 11 0 13 80 2 96 -7 11 -155 18 -166 7z"/>
<path d="M3913 4563 c-24 -9 -13 -23 17 -23 32 0 40 14 14 24 -9 3 -16 6 -17
5 -1 0 -8 -3 -14 -6z"/>
<path d="M1924 4484 c3 -9 6 -18 6 -20 0 -3 5 -2 10 1 16 10 12 35 -6 35 -11
0 -14 -5 -10 -16z"/>
<path d="M3340 4493 c0 -5 5 -15 10 -23 7 -11 12 -12 21 -3 6 6 8 16 5 22 -8
12 -36 15 -36 4z"/>
<path d="M4096 4291 c-4 -5 -2 -12 3 -15 5 -4 12 -2 15 3 4 5 2 12 -3 15 -5 4
-12 2 -15 -3z"/>
<path d="M2080 4275 c0 -8 -7 -15 -17 -15 -15 0 -14 -2 2 -20 12 -13 15 -27
11 -45 -4 -14 -2 -25 4 -25 6 0 10 26 10 60 0 33 -2 60 -5 60 -3 0 -5 -7 -5
-15z"/>
<path d="M3847 4263 c-11 -10 -8 -61 3 -68 6 -4 10 10 10 34 0 42 -2 46 -13
34z"/>
<path d="M1377 4253 c-3 -5 -1 -26 3 -48 7 -38 8 -38 9 -8 0 17 4 38 7 47 6
16 -11 23 -19 9z"/>
<path d="M1440 4239 c7 -11 14 -18 17 -15 8 8 -5 36 -17 36 -7 0 -7 -6 0 -21z"/>
<path d="M1498 4248 c9 -9 15 -9 24 0 9 9 7 12 -12 12 -19 0 -21 -3 -12 -12z"/>
<path d="M1615 4250 c-3 -5 -1 -18 4 -27 6 -10 11 -13 11 -6 0 6 3 18 6 27 7
17 -11 22 -21 6z"/>
<path d="M1750 4245 c7 -9 15 -13 17 -11 7 7 -7 26 -19 26 -6 0 -6 -6 2 -15z"/>
<path d="M1935 4250 c3 -5 8 -10 11 -10 2 0 4 5 4 10 0 6 -5 10 -11 10 -5 0
-7 -4 -4 -10z"/>
<path d="M2300 4208 c0 -62 5 -60 13 5 4 28 3 47 -3 47 -6 0 -10 -23 -10 -52z"/>
<path d="M2357 4253 c6 -4 13 -26 16 -48 4 -40 4 -40 3 4 -1 30 -6 46 -16 48
-10 3 -11 2 -3 -4z"/>
<path d="M2975 4249 c-11 -17 1 -21 15 -4 8 9 8 15 2 15 -6 0 -14 -5 -17 -11z"/>
<path d="M3020 4252 c0 -5 7 -15 15 -22 8 -7 15 -8 15 -2 0 5 -7 15 -15 22 -8
7 -15 8 -15 2z"/>
<path d="M3092 4247 c9 -7 18 -29 21 -48 l4 -34 1 36 c2 34 -12 59 -32 59 -6
0 -3 -6 6 -13z"/>
<path d="M3156 4245 c-3 -8 -1 -15 3 -15 5 0 11 7 15 15 3 8 1 15 -3 15 -5 0
-11 -7 -15 -15z"/>
<path d="M3337 4249 c15 -19 7 -29 -23 -29 -13 0 -24 7 -27 18 -4 13 -5 11 -6
-5 -1 -20 4 -23 39 -23 44 0 53 17 23 41 -16 12 -17 12 -6 -2z"/>
<path d="M3597 4239 c-5 -17 -11 -20 -31 -17 -34 7 -33 0 0 -12 l27 -10 -23
-20 c-13 -11 -19 -20 -13 -20 17 0 63 70 63 95 0 15 -19 2 -23 -16z"/>
<path d="M3933 4225 c0 -22 2 -30 4 -17 2 12 2 30 0 40 -3 9 -5 -1 -4 -23z"/>
<path d="M1560 4216 c0 -19 5 -38 10 -41 6 -4 10 10 10 34 0 23 -4 41 -10 41
-5 0 -10 -15 -10 -34z"/>
<path d="M2628 4233 c-6 -21 -3 -23 38 -23 35 0 44 4 44 17 0 13 -3 14 -12 5
-18 -18 -56 -15 -60 6 -3 14 -5 13 -10 -5z"/>
<path d="M3395 4241 c-3 -5 -1 -12 4 -15 5 -3 11 1 15 9 6 16 -9 21 -19 6z"/>
<path d="M2850 4225 c0 -11 11 -15 40 -15 29 0 40 4 40 15 0 13 -3 13 -20 3
-16 -10 -24 -10 -40 0 -17 10 -20 10 -20 -3z"/>
<path d="M1870 4212 c0 -9 6 -12 16 -8 9 3 29 6 45 6 16 0 29 3 29 8 0 4 -20
7 -45 7 -32 0 -45 -4 -45 -13z"/>
<path d="M2576 4195 c-3 -8 -1 -15 4 -15 6 0 10 7 10 15 0 8 -2 15 -4 15 -2 0
-6 -7 -10 -15z"/>
<path d="M3995 4197 c-29 -33 -27 -37 17 -36 35 1 38 2 18 8 -16 5 -24 13 -22
24 3 20 1 21 -13 4z"/>
<path d="M3150 4180 c0 -12 44 -24 62 -17 7 3 1 6 -14 6 -16 1 -28 6 -28 11 0
6 -4 10 -10 10 -5 0 -10 -4 -10 -10z"/>
<path d="M2240 4170 c-9 -6 -10 -10 -3 -10 6 0 15 5 18 10 8 12 4 12 -15 0z"/>
<path d="M2476 4169 c3 -5 24 -9 46 -9 51 0 47 5 -10 13 -24 3 -40 1 -36 -4z"/>
<path d="M2759 4167 c5 -5 19 -7 32 -5 20 3 19 5 -9 9 -20 3 -29 2 -23 -4z"/>
<path d="M3740 4170 c0 -5 17 -10 38 -9 33 1 34 2 12 9 -36 11 -50 11 -50 0z"/>
<path d="M1163 4163 c9 -2 25 -2 35 0 9 3 1 5 -18 5 -19 0 -27 -2 -17 -5z"/>
<path d="M1913 4163 c9 -2 23 -2 30 0 6 3 -1 5 -18 5 -16 0 -22 -2 -12 -5z"/>
<path d="M2653 4163 c9 -2 23 -2 30 0 6 3 -1 5 -18 5 -16 0 -22 -2 -12 -5z"/>
<path d="M2883 4163 c9 -2 23 -2 30 0 6 3 -1 5 -18 5 -16 0 -22 -2 -12 -5z"/>
<path d="M3303 4163 c9 -2 23 -2 30 0 6 3 -1 5 -18 5 -16 0 -22 -2 -12 -5z"/>
<path d="M3878 4163 c6 -2 18 -2 25 0 6 3 1 5 -13 5 -14 0 -19 -2 -12 -5z"/>
<path d="M1530 3280 c-11 -11 -20 -28 -20 -38 0 -10 -5 -23 -11 -29 -8 -8 -8
-17 0 -31 6 -11 12 -51 13 -89 l2 -68 5 80 c6 73 8 80 29 83 29 4 29 20 0 24
-31 4 -34 35 -7 64 27 29 17 32 -11 4z"/>
<path d="M2360 3270 c0 -5 5 -10 10 -10 6 0 10 5 10 10 0 6 -4 10 -10 10 -5 0
-10 -4 -10 -10z"/>
<path d="M900 3150 c0 -73 4 -120 10 -120 6 0 10 35 10 84 0 47 4 87 9 90 5 3
25 -12 45 -34 20 -22 38 -40 41 -40 3 0 21 18 41 40 20 22 40 37 45 34 5 -3 9
-43 9 -90 0 -49 4 -84 10 -84 6 0 10 47 10 120 0 66 -4 120 -9 120 -4 0 -20
-17 -35 -39 -15 -21 -37 -48 -50 -60 l-24 -23 -49 60 c-26 34 -51 61 -55 61
-5 1 -8 -53 -8 -119z"/>
<path d="M2451 3155 c-1 -109 5 -126 49 -124 l25 1 -26 9 c-51 19 -55 152 -5
162 21 4 21 4 0 6 -12 0 -26 11 -32 24 -8 17 -11 1 -11 -78z"/>
<path d="M1190 3209 c0 -2 16 -42 35 -88 41 -98 43 -124 10 -156 -14 -15 -19
-25 -11 -25 8 0 19 6 25 14 13 15 81 220 81 244 0 27 -10 6 -29 -59 -10 -37
-23 -64 -31 -64 -7 0 -23 26 -34 57 -18 48 -46 95 -46 77z"/>
<path d="M1646 3201 c-4 -5 10 -7 31 -4 31 4 40 1 51 -17 16 -26 8 -40 -24
-40 -44 0 -84 -27 -84 -58 0 -39 31 -55 89 -47 l46 6 -3 72 c-2 40 -8 78 -14
85 -12 14 -84 17 -92 3z m82 -83 c17 -17 15 -31 -8 -56 -40 -43 -107 -12 -80
37 16 31 65 42 88 19z"/>
<path d="M1934 3194 c-3 -10 -9 -28 -14 -39 -4 -11 -13 -35 -20 -52 -19 -52
-24 -47 -71 76 -5 13 -12 22 -14 19 -5 -4 10 -47 35 -103 5 -11 12 -30 15 -42
4 -13 10 -23 14 -23 11 0 75 170 67 177 -3 3 -8 -3 -12 -13z"/>
<path d="M2015 3178 c-69 -82 34 -194 119 -127 22 17 26 28 26 69 0 41 -4 52
-26 69 -41 32 -87 28 -119 -11z m112 0 c45 -43 13 -138 -47 -138 -31 0 -70 44
-70 78 0 40 35 82 68 82 14 0 36 -10 49 -22z"/>
<path d="M2257 3199 c-9 -5 -22 -7 -27 -4 -6 4 -10 -25 -10 -79 0 -51 4 -86
10 -86 6 0 10 29 10 68 0 72 11 94 55 105 l20 5 -20 1 c-11 0 -28 -4 -38 -10z"/>
<path d="M2367 3203 c-11 -11 -8 -173 3 -173 6 0 10 37 10 90 0 90 -1 96 -13
83z"/>
<path d="M2602 3203 c-19 -7 -42 -58 -42 -91 0 -43 40 -82 84 -82 19 0 37 4
40 8 3 5 -14 8 -36 8 -36 -1 -44 3 -57 27 -14 24 -14 29 -1 37 8 5 39 10 68
10 48 0 52 2 52 23 0 45 -61 79 -108 60z m70 -20 c10 -9 18 -25 18 -35 0 -17
-7 -19 -52 -16 -47 3 -53 5 -50 23 7 42 52 57 84 28z"/>
<path d="M2909 3197 c-69 -53 -37 -167 47 -167 18 0 36 4 39 10 4 6 -5 7 -23
4 -61 -12 -102 40 -81 103 13 40 41 57 81 49 18 -3 27 -2 23 4 -9 14 -67 12
-86 -3z"/>
<path d="M3080 3200 c-10 -6 -3 -8 22 -3 42 6 68 -8 68 -37 0 -13 -11 -19 -40
-23 -23 -3 -47 -11 -55 -17 -18 -15 -20 -61 -3 -78 15 -15 78 -16 78 -1 0 6 9
8 20 4 19 -6 20 -2 20 57 0 78 -17 108 -63 108 -18 0 -39 -5 -47 -10z m78 -82
c17 -17 15 -38 -5 -60 -31 -34 -83 -17 -83 27 0 35 63 58 88 33z"/>
<path d="M3296 3201 c-3 -5 -14 -7 -24 -5 -15 5 -17 -3 -12 -83 l4 -88 6 65
c6 75 15 95 50 109 24 9 24 10 3 10 -12 1 -24 -3 -27 -8z"/>
<path d="M3401 3184 c-30 -38 -28 -103 2 -132 24 -23 71 -29 96 -13 10 6 1 8
-26 4 -33 -4 -44 -1 -62 18 -11 12 -21 28 -21 35 0 15 48 27 97 23 36 -3 38
-2 36 25 -5 66 -82 91 -122 40z m94 -4 c29 -32 13 -50 -45 -50 -55 0 -66 16
-33 52 21 24 55 23 78 -2z"/>
<path d="M3614 3185 c-9 -14 -14 -34 -11 -44 3 -12 -3 -27 -14 -37 -35 -32 -4
-164 38 -164 14 0 13 3 -5 16 -14 10 -22 25 -22 45 0 29 0 29 59 29 40 0 62
-5 71 -15 20 -24 -1 -57 -46 -71 -39 -13 -39 -13 -4 -7 54 8 70 21 70 52 0 41
-23 56 -84 53 -62 -3 -98 16 -77 41 9 11 27 16 60 14 58 -2 81 14 81 57 0 18
5 37 12 44 9 9 -2 12 -50 12 -55 0 -63 -3 -78 -25z m89 -6 c29 -41 -8 -88 -56
-70 -32 13 -41 39 -22 67 19 30 59 31 78 3z"/>
<path d="M3880 3205 c0 -6 4 -15 8 -20 5 -6 21 -43 36 -82 25 -67 46 -93 46
-60 0 8 11 42 25 76 15 35 24 68 22 74 -2 6 -14 -17 -26 -51 -13 -35 -27 -65
-32 -68 -9 -5 -33 37 -42 76 -7 27 -36 71 -37 55z"/>
<path d="M4112 3203 c-19 -7 -42 -58 -42 -93 0 -43 39 -80 84 -80 19 0 37 4
41 9 3 6 -9 7 -30 4 -39 -6 -75 16 -75 47 0 23 20 30 81 30 41 0 49 3 49 19 0
31 -39 71 -68 70 -15 0 -33 -3 -40 -6z m70 -20 c10 -9 18 -24 18 -35 0 -15 -8
-18 -49 -18 -58 0 -69 11 -47 45 19 29 51 32 78 8z"/>
<path d="M4320 3200 c-8 -5 -22 -7 -30 -5 -13 4 -15 -8 -12 -80 4 -101 22
-115 22 -17 0 70 10 90 50 105 13 5 13 5 0 6 -8 0 -22 -4 -30 -9z"/>
<path d="M4425 3190 c-22 -24 -10 -42 47 -71 71 -36 33 -103 -39 -70 -23 11
-25 10 -13 -3 7 -10 28 -16 51 -16 32 0 42 5 51 24 15 34 5 52 -41 75 -22 12
-42 25 -45 30 -12 19 7 40 37 44 l32 4 -31 1 c-20 1 -37 -5 -49 -18z"/>
<path d="M3814 3115 c0 -49 1 -71 3 -48 2 23 2 64 0 90 -2 26 -3 8 -3 -42z"/>
<path d="M6006 3093 c-10 -29 -23 -53 -30 -53 -8 0 -21 21 -31 47 -10 26 -20
43 -22 37 -2 -6 9 -37 23 -70 l27 -59 29 64 c16 34 27 68 25 75 -2 6 -12 -13
-21 -41z"/>
<path d="M6633 3075 c0 -38 2 -53 4 -32 2 20 2 52 0 70 -2 17 -4 1 -4 -38z"/>
<path d="M6693 3070 c0 -41 2 -58 4 -37 2 20 2 54 0 75 -2 20 -4 3 -4 -38z"/>
<path d="M6178 3090 c29 -27 28 -30 -8 -30 -21 0 -30 5 -30 16 0 8 -4 12 -10
9 -5 -3 -10 -19 -10 -35 0 -36 43 -71 63 -51 8 8 6 11 -10 11 -22 0 -47 23
-36 33 3 4 24 7 45 7 21 0 38 4 38 8 0 11 -44 52 -55 52 -5 0 1 -9 13 -20z"/>
<path d="M6500 3090 c-26 -26 -25 -50 0 -78 22 -23 40 -29 40 -12 0 6 -7 10
-15 10 -8 0 -19 9 -25 20 -14 26 3 60 31 60 11 0 17 5 14 10 -9 15 -23 12 -45
-10z"/>
<path d="M6073 3050 c0 -30 2 -43 4 -27 2 15 2 39 0 55 -2 15 -4 2 -4 -28z"/>
<path d="M6252 3090 c0 -8 8 -33 17 -55 l18 -40 13 28 c16 34 26 34 34 2 9
-36 20 -31 39 21 14 39 14 44 2 34 -8 -7 -15 -19 -15 -26 0 -20 -13 -17 -28 7
l-13 20 -18 -23 -19 -23 -15 35 c-9 19 -15 28 -15 20z"/>
<path d="M6564 3050 c1 -27 4 -50 9 -50 4 0 7 23 7 50 0 28 -4 50 -8 50 -5 0
-8 -22 -8 -50z"/>
<path d="M2045 1954 c-69 -18 -117 -38 -125 -55 -7 -12 -21 -19 -41 -19 -35 0
-115 -44 -129 -71 -6 -10 -10 -48 -9 -85 2 -64 0 -69 -30 -96 -23 -21 -42 -28
-72 -28 -37 0 -41 -3 -55 -36 -29 -68 -39 -184 -24 -265 7 -41 17 -78 22 -83
4 -6 8 -19 9 -30 1 -12 7 22 14 75 14 104 32 148 68 174 44 32 172 114 178
115 3 0 9 -32 13 -72 4 -41 13 -79 21 -88 8 -9 15 -20 15 -23 0 -9 -89 -53
-125 -61 -40 -10 -102 -70 -126 -124 -11 -23 -24 -40 -30 -37 -6 4 -7 -4 -3
-22 32 -139 203 -285 385 -328 217 -51 458 33 593 205 52 66 59 91 40 135 -17
41 -18 55 -4 55 6 0 13 -13 17 -30 3 -16 9 -30 13 -30 10 0 20 26 20 54 0 12
4 26 9 32 18 20 33 139 26 217 -11 120 -32 176 -79 208 -28 19 -43 38 -51 65
-9 35 -14 38 -62 49 -87 20 -143 66 -143 118 0 32 -3 34 -67 56 -66 23 -219
37 -268 25z m124 -48 c30 -9 64 -25 76 -36 26 -24 45 -116 45 -213 0 -55 -5
-75 -35 -131 -28 -52 -35 -78 -35 -121 0 -43 -4 -56 -19 -65 -28 -15 -103 -12
-144 5 -45 18 -61 47 -58 102 1 25 -5 56 -16 75 -49 91 -54 160 -24 283 22 87
34 103 82 115 38 9 49 8 128 -14z m422 -404 c66 -43 72 -54 79 -150 8 -115 5
-130 -26 -124 -19 3 -24 11 -24 34 0 36 -16 67 -46 91 -17 13 -23 27 -22 51 1
21 -10 52 -26 80 l-27 46 24 0 c13 0 43 -13 68 -28z"/>
<path d="M2030 1782 c0 -6 6 -13 13 -15 6 -3 -3 -10 -21 -17 -38 -14 -33 -25
15 -35 29 -6 34 -4 43 21 6 15 7 31 3 35 -14 13 -53 21 -53 11z"/>
<path d="M2190 1781 c-21 -6 -25 -13 -25 -41 0 -35 0 -35 40 -32 52 5 65 18
31 33 -19 9 -25 17 -20 31 3 10 4 18 2 17 -2 -1 -14 -4 -28 -8z"/>
<path d="M2023 1584 c-8 -21 66 -94 97 -94 31 0 103 71 95 92 -6 14 -11 15
-26 8 -10 -6 -29 -8 -43 -4 -13 3 -27 1 -30 -5 -5 -7 4 -11 23 -11 37 0 38 -6
9 -31 -23 -19 -74 -27 -63 -10 3 6 -1 13 -9 18 -7 4 -15 17 -17 27 -5 26 -27
32 -36 10z"/>
<path d="M2110 1400 c0 -5 7 -10 15 -10 8 0 15 5 15 10 0 6 -7 10 -15 10 -8 0
-15 -4 -15 -10z"/>
<path d="M1620 505 c0 -8 5 -15 10 -15 6 0 10 7 10 15 0 8 -4 15 -10 15 -5 0
-10 -7 -10 -15z"/>
<path d="M1140 425 c0 -65 3 -86 13 -83 6 3 14 24 17 49 l5 44 22 -30 22 -30
25 30 25 30 1 -41 c0 -44 25 -80 35 -52 10 25 1 161 -11 165 -6 2 -23 -14 -37
-36 -30 -45 -43 -45 -72 1 -36 57 -45 48 -45 -47z"/>
<path d="M1937 488 c-63 -56 -20 -163 62 -156 25 2 37 8 39 21 3 15 -1 17 -22
11 -38 -9 -76 19 -76 56 0 38 24 60 67 60 46 0 39 24 -9 28 -26 2 -43 -3 -61
-20z"/>
<path d="M2816 479 c-14 -17 -16 -26 -7 -43 6 -11 12 -36 13 -55 3 -40 30 -63
50 -43 11 11 10 15 -4 23 -22 12 -24 67 -3 75 17 7 20 34 4 34 -7 0 -17 7 -23
15 -10 14 -13 13 -30 -6z"/>
<path d="M1357 452 c-23 -25 -22 -85 1 -106 14 -11 32 -15 63 -12 l44 4 3 66
3 66 -49 0 c-35 0 -54 -5 -65 -18z m67 -18 c20 -8 21 -48 1 -64 -23 -19 -55
-3 -55 29 0 40 15 50 54 35z"/>
<path d="M1510 398 c0 -37 4 -68 9 -68 13 0 21 26 21 66 0 28 5 36 25 44 38
14 30 30 -15 28 l-40 -1 0 -69z"/>
<path d="M1615 437 c-10 -52 -3 -91 18 -95 16 -3 18 3 15 59 -3 70 -23 91 -33
36z"/>
<path d="M1695 456 c-14 -10 -20 -26 -20 -55 0 -51 24 -71 82 -68 45 1 53 12
53 74 0 53 -8 63 -54 63 -23 0 -51 -6 -61 -14z m70 -56 c0 -38 -24 -52 -50
-30 -31 25 -9 73 30 68 16 -2 20 -11 20 -38z"/>
<path d="M2086 451 c-26 -29 -24 -80 4 -103 29 -23 83 -21 88 4 3 14 -3 16
-32 11 -29 -4 -36 -2 -36 11 0 12 10 16 40 16 35 0 40 3 40 23 0 51 -70 76
-104 38z m69 -21 c4 -6 -7 -10 -25 -10 -18 0 -29 4 -25 10 3 6 15 10 25 10 10
0 22 -4 25 -10z"/>
<path d="M2230 398 c0 -39 4 -68 10 -68 6 0 10 15 10 34 0 48 9 66 36 77 37
13 28 28 -16 26 l-40 -1 0 -68z"/>
<path d="M2346 462 c-7 -12 43 -132 56 -132 11 0 69 121 62 131 -11 18 -22 8
-38 -32 -15 -37 -36 -46 -36 -15 0 22 -36 61 -44 48z"/>
<path d="M2507 452 c-23 -25 -22 -85 1 -105 13 -12 32 -16 63 -14 l44 3 3 67
3 67 -49 0 c-35 0 -54 -5 -65 -18z m77 -34 c15 -25 -4 -53 -35 -53 -25 0 -37
30 -25 61 8 20 46 14 60 -8z"/>
<path d="M2655 452 c-7 -19 -6 -87 1 -106 10 -25 24 -8 24 28 0 80 57 89 62 9
2 -26 8 -47 13 -46 12 3 19 76 10 110 -5 21 -11 23 -55 21 -31 -2 -51 -7 -55
-16z"/>
<path d="M2927 453 c-55 -62 1 -146 77 -117 9 3 16 12 16 19 0 10 -10 12 -35
8 -28 -4 -35 -2 -35 11 0 12 10 16 40 16 35 0 40 3 40 23 0 50 -70 76 -103 40z
m68 -23 c4 -6 -7 -10 -25 -10 -18 0 -29 4 -25 10 3 6 15 10 25 10 10 0 22 -4
25 -10z"/>
<path d="M3072 458 c-21 -21 -13 -47 21 -64 42 -22 44 -24 27 -34 -8 -5 -21
-5 -32 1 -26 14 -43 0 -21 -17 22 -17 65 -18 81 -2 22 22 13 48 -23 65 -19 9
-35 20 -35 24 0 15 20 20 41 9 18 -10 20 -9 17 7 -4 22 -57 30 -76 11z"/>
</g>
</svg>
