<?xml version="1.0" standalone="no"?>
<!DOCTYPE svg PUBLIC "-//W3C//DTD SVG 20010904//EN"
 "http://www.w3.org/TR/2001/REC-SVG-20010904/DTD/svg10.dtd">
<svg version="1.0" xmlns="http://www.w3.org/2000/svg"
 width="150.000000pt" height="151.000000pt" viewBox="0 0 150.000000 151.000000"
 preserveAspectRatio="xMidYMid meet">

<g transform="translate(0.000000,151.000000) scale(0.100000,-0.100000)"
fill="#000000" stroke="none">
<path d="M728 1363 c7 -3 16 -2 19 1 4 3 -2 6 -13 5 -11 0 -14 -3 -6 -6z"/>
<path d="M262 1331 c-110 -70 -87 -235 38 -271 75 -22 171 38 186 114 9 48
-19 120 -58 149 -40 30 -124 34 -166 8z m133 -66 c52 -51 16 -145 -55 -145
-40 0 -90 47 -90 85 0 16 12 38 29 56 38 37 82 39 116 4z"/>
<path d="M1090 1332 c-47 -23 -83 -92 -76 -146 9 -74 74 -129 153 -129 107 0
179 129 123 221 -41 67 -127 91 -200 54z m124 -64 c15 -13 29 -37 32 -55 5
-27 1 -37 -24 -63 -39 -38 -83 -40 -117 -5 -76 75 29 193 109 123z"/>
<path d="M170 978 c-69 -47 -75 -64 -78 -226 -5 -172 5 -222 48 -254 l30 -22
0 -223 c0 -190 2 -224 15 -229 8 -4 22 -1 30 6 13 10 15 52 15 251 l0 238 -29
15 c-16 9 -31 23 -35 31 -11 29 -7 303 5 329 17 36 31 40 164 46 120 5 120 5
120 30 l0 25 -126 3 c-116 2 -128 1 -159 -20z"/>
<path d="M1044 985 c-15 -39 1 -45 121 -45 115 0 117 0 146 -29 l29 -29 0
-164 c0 -169 -4 -188 -42 -188 -10 0 -20 -10 -23 -22 -3 -13 -4 -124 -3 -248
l3 -225 25 0 25 0 3 214 2 214 38 32 37 33 0 185 c0 206 -3 215 -75 265 -30
20 -45 22 -157 22 -101 0 -125 -3 -129 -15z"/>
<path d="M1003 413 c-10 -3 -13 -46 -13 -164 l0 -159 30 0 30 0 0 159 c0 136
-2 160 -16 165 -9 3 -16 6 -17 5 -1 0 -8 -3 -14 -6z"/>
</g>
</svg>
