<?xml version="1.0" encoding="UTF-8"?>
<svg version="1.1" xmlns="http://www.w3.org/2000/svg" width="109" height="102">
<path d="M0 0 C2.5 0.125 2.5 0.125 3.5 1.125 C3.16835949 7.03423086 1.23348726 11.08493414 -1.75 16.125 C-2.32427734 17.13433594 -2.32427734 17.13433594 -2.91015625 18.1640625 C-4.88068737 21.57789234 -6.96415749 24.82171352 -9.296875 28 C-11.69206726 30.76018076 -11.69206726 30.76018076 -11.5 33.125 C-6.22313521 31.51899767 -2.37496016 28.12322013 1.875 24.75 C15.03332535 14.33492976 15.03332535 14.33492976 20.4375 13.875 C21.118125 13.9575 21.79875 14.04 22.5 14.125 C23.25 16.3671875 23.25 16.3671875 23.5 19.125 C21.9375 21.1953125 21.9375 21.1953125 19.5 23.25 C18.59378906 24.01699219 17.68757813 24.78398438 16.75390625 25.57421875 C12.4205473 29.02862237 7.93731641 32.2914948 3.41601562 35.49462891 C-0.07467216 37.81678956 -0.07467216 37.81678956 -2.5 41.125 C-0.35281942 40.06515411 1.79290376 39.00255563 3.9375 37.9375 C4.89450806 37.46364868 4.89450806 37.46364868 5.87084961 36.98022461 C10.20470637 34.81849401 14.40909579 32.51365586 18.53515625 29.97265625 C20.95886117 28.927042 22.8879161 28.97560872 25.5 29.125 C25.8125 31.375 25.8125 31.375 25.5 34.125 C20.64057836 38.68192752 14.54450365 41.78796678 8.83007812 45.14648438 C7.65541992 45.8493457 7.65541992 45.8493457 6.45703125 46.56640625 C5.74522705 46.98607666 5.03342285 47.40574707 4.30004883 47.83813477 C2.2157179 49.16763017 2.2157179 49.16763017 0.5 52.125 C1.23863281 51.9084375 1.97726563 51.691875 2.73828125 51.46875 C9.82559858 49.52356507 16.16283066 48.73503234 23.5 49.125 C23.995 51.105 23.995 51.105 24.5 53.125 C20.79137034 55.5813651 17.49818224 56.77408653 13.1875 57.8125 C0.79277374 61.22234624 -10.16363672 67.6583982 -20.92578125 74.55859375 C-25.23049181 77.17800033 -28.51313955 77.53375905 -33.5 77.125 C-40.16110875 75.10609252 -44.00430794 71.01566448 -47.5 65.125 C-48.7169802 61.47405939 -48.64566681 58.111748 -48.625 54.3125 C-48.62886719 53.61318359 -48.63273437 52.91386719 -48.63671875 52.19335938 C-48.62896488 48.04891846 -48.19234176 44.19916498 -47.5 40.125 C-47.3594734 37.44418477 -47.27015265 34.80530293 -47.25 32.125 C-47.229375 31.43921875 -47.20875 30.7534375 -47.1875 30.046875 C-47.15090067 25.25236262 -48.25111275 22.29135954 -50.5 18.125 C-50.5 16.805 -50.5 15.485 -50.5 14.125 C-46.29732245 13.71297279 -44.24560005 13.52629428 -40.8828125 16.2265625 C-36.41549048 21.66058371 -35.3659758 28.9702499 -35.58984375 35.91015625 C-36.63275271 42.17754247 -39.42906018 47.61606215 -42.5 53.125 C-40.52 51.475 -38.54 49.825 -36.5 48.125 C-34.96833832 52.20943115 -35.86918348 55.91955657 -36.5 60.125 C-35.51 57.155 -34.52 54.185 -33.5 51.125 C-32.84 51.125 -32.18 51.125 -31.5 51.125 C-31.5 55.745 -31.5 60.365 -31.5 65.125 C-31.17 65.125 -30.84 65.125 -30.5 65.125 C-29.84 60.505 -29.18 55.885 -28.5 51.125 C-27.015 50.63 -27.015 50.63 -25.5 50.125 C-24.18 54.415 -22.86 58.705 -21.5 63.125 C-20.17435721 60.47371442 -20.76793271 59.29519567 -21.4375 56.4375 C-23.60239362 46.32978723 -23.60239362 46.32978723 -21.5 42.125 C-20.4790625 42.558125 -20.4790625 42.558125 -19.4375 43 C-16.17106907 44.25097355 -12.87153877 45.19947955 -9.5 46.125 C-11.22293764 44.31138143 -12.92198464 42.81121655 -14.9375 41.3125 C-17.8000211 38.86888442 -19.50120377 36.29550437 -21.5 33.125 C-22.16 32.465 -22.82 31.805 -23.5 31.125 C-19.06619081 23.95029059 -14.38657691 16.96003069 -9.625 10 C-8.74968628 8.71935669 -8.74968628 8.71935669 -7.85668945 7.4128418 C-2.86740515 0.14337026 -2.86740515 0.14337026 0 0 Z " fill="#C06AA6" transform="translate(50.5,24.875)"/>
<path d="M0 0 C2.875 1.75 2.875 1.75 5 5 C6.5572096 14.19430714 4.2662421 21.88929178 -0.66015625 29.59765625 C-7.39797808 38.77050199 -15.87969588 44.26321049 -27.03125 46.5625 C-36.64699269 47.97955682 -43.96245561 46.53300165 -53 43 C-53 42.01 -53 41.02 -53 40 C-51.96101563 40.04640625 -50.92203125 40.0928125 -49.8515625 40.140625 C-39.57295006 40.46395271 -31.55408512 39.7448319 -23.125 33.25 C-16.47301792 26.92593253 -15.24699553 19.2348362 -13.80859375 10.48828125 C-12.85868767 6.39037724 -11.65999746 3.20206713 -8.1875 0.6875 C-5.19277955 -0.25369786 -3.12650508 -0.44664358 0 0 Z " fill="#755795" transform="translate(97,55)"/>
<path d="M0 0 C8.33450468 6.69935424 12.95941796 15.94292446 14.67578125 26.3984375 C15.46707263 34.87184938 14.5113971 42.7272058 10.67578125 50.3984375 C10.01578125 50.3984375 9.35578125 50.3984375 8.67578125 50.3984375 C8.71058594 49.57601562 8.74539062 48.75359375 8.78125 47.90625 C9.06649985 36.14308956 7.3007629 27.60034034 -0.76171875 18.7109375 C-6.69517769 13.3563526 -11.97530261 12.60710321 -19.64257812 11.66992188 C-24.89177211 10.92756724 -28.18358985 9.76148351 -32.32421875 6.3984375 C-33.87446339 3.29794822 -33.6141389 0.81949532 -33.32421875 -2.6015625 C-30.5380834 -7.17878485 -30.5380834 -7.17878485 -27.49609375 -8.23828125 C-17.18172839 -9.96352582 -8.31713624 -5.7311359 0 0 Z " fill="#007199" transform="translate(94.32421875,19.6015625)"/>
<path d="M0 0 C1.7015625 0.99 1.7015625 0.99 3.4375 2 C5.80101652 3.84469582 7.38687351 5.49069213 9 8 C6.21738023 7.49406913 3.67290541 6.884154 1 5.9375 C-7.29606181 3.56977866 -15.81437405 4.31111807 -23.68359375 7.63671875 C-30.41251175 11.59690826 -33.29405848 15.69803171 -36.5625 22.625 C-41.00894782 32.04287875 -41.00894782 32.04287875 -46 34 C-49.68436374 34.37113554 -52.98882978 33.75837766 -56 31.5 C-57.86225407 26.84436483 -57.87841975 22.4655163 -56.19140625 17.73046875 C-51.22217541 7.91236906 -43.19905472 0.94574829 -33 -3 C-22.69760176 -5.95941308 -9.26935572 -5.43504392 0 0 Z " fill="#019597" transform="translate(76,4)"/>
</svg>
